<svg class="w-full" xmlns="http://www.w3.org/2000/svg" data-name="Layer 1" viewBox="0 0 24 12.586" width="24" height="12.586"><defs><pattern id="b" data-name="New Pattern 3" width="36.88" height="49.48" patternUnits="userSpaceOnUse" viewBox="0 0 36.88 49.48"><path fill="none" d="M0 0h.808v1.084H0z"/><path d="M.095.289c.099 0 .099-.153 0-.153s-.099.153 0 .153"/><path d="M.099.376c.099 0 .099-.153 0-.153S0 .376.099.376"/><path d="M.099.459c.099 0 .099-.153 0-.153S0 .459.099.459"/><path d="M.074.541c.099 0 .099-.153 0-.153s-.099.153 0 .153"/><path d="m.024.619.004.008a.077.077 0 0 0 .105.027.08.08 0 0 0 .028-.105L.157.541A.077.077 0 0 0 .052.513a.08.08 0 0 0-.028.105"/><path d="m.033.659.004.012a.1.1 0 0 0 .035.046.08.08 0 0 0 .059.008.08.08 0 0 0 .053-.094L.18.619A.08.08 0 0 0 .145.573.08.08 0 0 0 .086.565a.08.08 0 0 0-.054.094"/><path d="M.035.742V.75a.08.08 0 0 0 .077.077A.08.08 0 0 0 .189.75V.742A.08.08 0 0 0 .112.665a.08.08 0 0 0-.077.077"/><path d="M.107.926c.099 0 .099-.153 0-.153s-.099.153 0 .153"/><path d="M.039.92v.004a.08.08 0 0 0 .077.077.08.08 0 0 0 .077-.077V.92A.08.08 0 0 0 .116.843.08.08 0 0 0 .039.92"/><path d="M.131 1.079c.099 0 .099-.153 0-.153s-.099.153 0 .153m.088-.77c.099 0 .099-.153 0-.153S.12.309.219.309"/><path d="M.144.459c.099 0 .099-.153 0-.153s-.099.153 0 .153"/><path d="M.186.591c.099 0 .099-.153 0-.153s-.099.153 0 .153"/><path d="M.186.641c.099 0 .099-.153 0-.153s-.099.153 0 .153M.327.74c.099 0 .099-.153 0-.153S.228.74.327.74"/><path d="M.215.844c.099 0 .099-.153 0-.153s-.099.153 0 .153"/><path d="M.231.988C.33.988.33.835.231.835s-.099.153 0 .153"/><path d="M.231 1.084c.099 0 .099-.153 0-.153s-.099.153 0 .153m.05-.687c.056 0 .056-.088 0-.088s-.056.088 0 .088"/><path d="M.285.446c.056 0 .056-.088 0-.088s-.056.088 0 .088"/><path d="M.287.46v.004a.044.044 0 0 0 .088 0V.46a.044.044 0 0 0-.088 0"/><path d="M.331.566c.056 0 .056-.088 0-.088s-.056.088 0 .088M.364.242a.022.022 0 0 0 0-.044.022.022 0 0 0 0 .044m.112.12a.022.022 0 0 0 0-.044.022.022 0 0 0 0 .044"/><path d="M.369.196V.188a.022.022 0 0 0-.044 0v.008a.022.022 0 0 0 .044 0M.361.105V.101a.022.022 0 0 0-.044 0v.004a.022.022 0 0 0 .044 0M.339.044a.022.022 0 0 0 0-.044.022.022 0 0 0 0 .044m-.108 0a.022.022 0 0 0 0-.044.022.022 0 0 0 0 .044M.227.102a.022.022 0 0 0 0-.044.022.022 0 0 0 0 .044M.161.135a.022.022 0 0 0 0-.044.022.022 0 0 0 0 .044M.26.156h.008a.022.022 0 0 0 0-.044H.26a.022.022 0 0 0 0 .044m.031.085L.303.27a.02.02 0 0 0 .03.008.02.02 0 0 0 .008-.03L.328.219a.02.02 0 0 0-.03-.008.02.02 0 0 0-.008.03m.113.182v.004a.022.022 0 0 0 .044 0V.423a.022.022 0 0 0-.044 0m.049.123.004.008c.012.025.05.003.038-.022L.49.524C.478.499.44.521.452.546m.032.097a.05.05 0 0 0-.018.041.022.022 0 0 0 .044 0 .01.01 0 0 1 .005-.01.02.02 0 0 0 0-.031.02.02 0 0 0-.031 0m-.04.088L.432.768C.424.795.466.807.474.78L.486.743C.494.716.452.704.444.731M.426.81H.422a.022.022 0 0 0 0 .044h.004a.022.022 0 0 0 0-.044M.387.909.383.917C.37.942.408.964.421.939L.425.931C.438.906.4.884.387.909m-.04.139v.012a.022.022 0 0 0 .044 0v-.012a.022.022 0 0 0-.044 0m-.032.034a.022.022 0 0 0 0-.044.022.022 0 0 0 0 .044m0-.178a.022.022 0 0 0 0-.044.022.022 0 0 0 0 .044M.376.798A.04.04 0 0 0 .398.762a.022.022 0 0 0-.044 0c0-.003.004-.004 0-.002C.329.773.351.81.376.798M.381.685a.022.022 0 0 0 0-.044.022.022 0 0 0 0 .044M.397.623a.022.022 0 0 0 0-.044.022.022 0 0 0 0 .044M.416.546.42.538C.433.513.395.491.382.516L.378.524C.365.549.403.571.416.546M.393.35a.022.022 0 0 0 0-.044.022.022 0 0 0 0 .044M.54.351l.012.021A.022.022 0 0 0 .59.35L.578.328A.022.022 0 0 0 .54.35ZM.764.65v.004a.022.022 0 0 0 .044 0V.65a.022.022 0 0 0-.044 0M.526.859a.022.022 0 0 0 0-.044.022.022 0 0 0 0 .044"/><path d="M.5.635a.022.022 0 0 0 0-.044.022.022 0 0 0 0 .044M.399.48.411.468C.431.449.4.418.38.437L.367.449c-.02.019.011.05.031.031"/></pattern></defs><g opacity=".1"><path fill="#3f3d56" d="M10.747 7.93a.249.326 0 0 1-.249.326.249.326 0 0 1-.249-.326.249.326 0 0 1 .498 0"/><path d="M10.696 6.534a.4.4 0 0 0 .052-.199c0-.18-.112-.326-.249-.326s-.251.145-.251.326a.4.4 0 0 0 .052.199.41.41 0 0 0 0 .399.41.41 0 0 0 0 .399.4.4 0 0 0-.052.199c0 .18.112.326.249.326s.249-.146.249-.326a.4.4 0 0 0-.052-.199.41.41 0 0 0 0-.399.41.41 0 0 0 0-.399Z" fill="#3f3d56"/><path fill="#3f3d56" d="M10.747 5.936a.249.326 0 0 1-.249.326.249.326 0 0 1-.249-.326.249.326 0 0 1 .498 0"/><path fill="#3f3d56" d="M10.747 5.537a.249.326 0 0 1-.249.326.249.326 0 0 1-.249-.326.249.326 0 0 1 .498 0"/><path d="M9.565 2.808a1 1 0 0 1-.093-.137l.655-.108-.708.005a1.2 1.2 0 0 1-.022-.946l.95.493-.876-.644a1.194 1.194 0 1 1 1.971 1.336 1.2 1.2 0 0 1 .136.218l-.85.443.906-.304a1.2 1.2 0 0 1-.192 1.121 1.194 1.194 0 1 1-1.877 0 1.194 1.194 0 0 1 0-1.476Z" fill="#667eea"/><path d="M11.698 3.546a1.2 1.2 0 0 1-.256.738 1.194 1.194 0 1 1-1.877 0c-.16-.203 2.132-.872 2.132-.738" opacity=".1"/></g><g opacity=".1"><path fill="#3f3d56" d="M13.594 7.232a.186.244 0 0 1-.186.244.186.244 0 0 1-.187-.244.186.244 0 0 1 .373 0"/><path d="M13.555 6.189a.3.3 0 0 0 .039-.149c0-.135-.083-.244-.186-.244s-.186.109-.186.244a.3.3 0 0 0 .039.149.3.3 0 0 0 0 .298.3.3 0 0 0 0 .298.3.3 0 0 0-.039.149c0 .135.083.244.186.244s.186-.109.186-.244a.3.3 0 0 0-.039-.149.31.31 0 0 0 0-.298.31.31 0 0 0 0-.298" fill="#3f3d56"/><path fill="#3f3d56" d="M13.594 5.742a.186.244 0 0 1-.186.244.186.244 0 0 1-.187-.244.186.244 0 0 1 .373 0"/><path fill="#3f3d56" d="M13.594 5.444a.186.244 0 0 1-.186.244.186.244 0 0 1-.187-.244.186.244 0 0 1 .373 0"/><path d="M12.71 3.405a1 1 0 0 1-.069-.102l.489-.08-.529.004a.9.9 0 0 1-.017-.707l.71.369-.655-.482a.892.892 0 1 1 1.474.999 1 1 0 0 1 .102.163l-.635.33.677-.227a.9.9 0 0 1-.144.838.892.892 0 1 1-1.401 0 .89.89 0 0 1 0-1.103Z" fill="#667eea"/><path d="M14.304 3.956a.9.9 0 0 1-.191.552.892.892 0 1 1-1.401 0c-.12-.152 1.592-.652 1.592-.552" opacity=".1"/></g><g opacity=".1"><path fill="#3f3d56" d="M22.992 7.054a.249.326 0 0 1-.249.326.249.326 0 0 1-.25-.326.249.326 0 0 1 .499 0"/><path d="M22.545 5.658a.4.4 0 0 1-.052-.199c0-.18.112-.326.249-.326s.249.146.249.326a.4.4 0 0 1-.052.199.41.41 0 0 1 0 .399.41.41 0 0 1 0 .399.4.4 0 0 1 .052.199c0 .18-.112.326-.249.326s-.249-.146-.249-.326a.4.4 0 0 1 .052-.199.41.41 0 0 1 0-.399.41.41 0 0 1 0-.399" fill="#3f3d56"/><path fill="#3f3d56" d="M22.992 5.06a.249.326 0 0 1-.249.326.249.326 0 0 1-.25-.326.249.326 0 0 1 .499 0"/><path fill="#3f3d56" d="M22.992 4.661a.249.326 0 0 1-.249.326.249.326 0 0 1-.25-.326.249.326 0 0 1 .499 0"/><path d="M23.675 1.932a1 1 0 0 0 .093-.137l-.655-.108.708.005a1.2 1.2 0 0 0 .022-.946l-.95.493.876-.644a1.194 1.194 0 1 0-1.971 1.336 1.2 1.2 0 0 0-.136.218l.85.443-.906-.304a1.2 1.2 0 0 0 .192 1.121 1.194 1.194 0 1 0 1.877 0 1.194 1.194 0 0 0 0-1.476Z" fill="#667eea"/><path d="M21.543 2.67a1.2 1.2 0 0 0 .256.738 1.194 1.194 0 1 0 1.877 0c.16-.203-2.132-.872-2.132-.738" opacity=".1"/></g><g opacity=".1"><path fill="#3f3d56" d="M20.523 7.101a.186.244 0 0 1-.186.243.186.244 0 0 1-.186-.243.186.244 0 0 1 .372 0"/><path d="M20.19 6.058a.3.3 0 0 1-.039-.149c0-.135.083-.244.186-.244s.186.109.186.244a.3.3 0 0 1-.039.149.3.3 0 0 1 0 .298.3.3 0 0 1 0 .298.3.3 0 0 1 .039.149c0 .135-.083.244-.186.244s-.186-.109-.186-.244a.3.3 0 0 1 .039-.149.31.31 0 0 1 0-.298.31.31 0 0 1 0-.298" fill="#3f3d56"/><path fill="#3f3d56" d="M20.523 5.611a.186.244 0 0 1-.186.243.186.244 0 0 1-.186-.243.186.244 0 0 1 .372 0"/><path fill="#3f3d56" d="M20.523 5.313a.186.244 0 0 1-.186.243.186.244 0 0 1-.186-.243.186.244 0 0 1 .372 0"/><path d="M21.034 3.273a1 1 0 0 0 .069-.102l-.489-.08.529.004a.9.9 0 0 0 .017-.707l-.71.369.655-.482a.892.892 0 1 0-1.474.999 1 1 0 0 0-.102.163l.635.33-.675-.228a.9.9 0 0 0 .144.838.892.892 0 1 0 1.401 0 .89.89 0 0 0 0-1.103Z" fill="#667eea"/><path d="M19.441 3.825a.9.9 0 0 0 .191.552.892.892 0 1 0 1.401 0c.12-.152-1.592-.652-1.592-.552" opacity=".1"/></g><g opacity=".1"><path fill="#3f3d56" d="M1.598 7.054a.249.326 0 0 1-.249.326.249.326 0 0 1-.25-.326.249.326 0 0 1 .499 0"/><path d="M1.546 5.658a.4.4 0 0 0 .052-.199c0-.18-.112-.326-.249-.326s-.249.146-.249.326a.4.4 0 0 0 .052.199.41.41 0 0 0 0 .399.41.41 0 0 0 0 .399.4.4 0 0 0-.052.199c0 .18.111.326.249.326s.25-.146.25-.326a.4.4 0 0 0-.052-.199.41.41 0 0 0 0-.399.41.41 0 0 0 0-.399Z" fill="#3f3d56"/><path fill="#3f3d56" d="M1.598 5.06a.249.326 0 0 1-.249.326.249.326 0 0 1-.25-.326.249.326 0 0 1 .499 0"/><path fill="#3f3d56" d="M1.598 4.661a.249.326 0 0 1-.249.326.249.326 0 0 1-.25-.326.249.326 0 0 1 .499 0"/><path d="M.416 1.932a1 1 0 0 1-.093-.137l.655-.108-.709.006A1.2 1.2 0 0 1 .247.747l.95.493L.321.596a1.194 1.194 0 1 1 1.971 1.336 1.2 1.2 0 0 1 .136.218l-.851.442.907-.304a1.2 1.2 0 0 1-.193 1.121 1.194 1.194 0 1 1-1.877 0 1.194 1.194 0 0 1 0-1.476Z" fill="#667eea"/><path d="M2.548 2.67a1.2 1.2 0 0 1-.256.738 1.194 1.194 0 1 1-1.877 0c-.16-.203 2.132-.872 2.132-.738" opacity=".1"/></g><g opacity=".1"><path fill="#3f3d56" d="M3.941 7.101a.186.244 0 0 1-.187.243.186.244 0 0 1-.186-.243.186.244 0 0 1 .373 0"/><path d="M3.902 6.058a.3.3 0 0 0 .039-.149c0-.135-.083-.244-.186-.244s-.186.109-.186.244a.3.3 0 0 0 .039.149.3.3 0 0 0 0 .298.3.3 0 0 0 0 .298.3.3 0 0 0-.039.149c0 .135.083.244.186.244s.186-.109.186-.244a.3.3 0 0 0-.039-.149.31.31 0 0 0 0-.298.31.31 0 0 0 0-.298" fill="#3f3d56"/><path fill="#3f3d56" d="M3.941 5.611a.186.244 0 0 1-.187.243.186.244 0 0 1-.186-.243.186.244 0 0 1 .373 0"/><path fill="#3f3d56" d="M3.941 5.313a.186.244 0 0 1-.187.243.186.244 0 0 1-.186-.243.186.244 0 0 1 .373 0"/><path d="M3.057 3.273a1 1 0 0 1-.069-.102l.489-.08-.529.004a.9.9 0 0 1-.017-.707l.71.369-.655-.482a.892.892 0 1 1 1.474.999 1 1 0 0 1 .102.163l-.635.33.677-.227a.9.9 0 0 1-.144.838.892.892 0 1 1-1.401 0 .89.89 0 0 1 0-1.103Z" fill="#667eea"/><path d="M4.65 3.825a.9.9 0 0 1-.191.552.892.892 0 1 1-1.401 0c-.12-.152 1.592-.652 1.592-.552" opacity=".1"/></g><path fill="#667eea" opacity=".1" d="M24 10.798a12 .194 0 0 1-12 .194 12 .194 0 0 1-12-.194 12 .194 0 0 1 24 0m0 1.594a12 .194 0 0 1-12 .194 12 .194 0 0 1-12-.194 12 .194 0 0 1 24 0m0-4.918a12 .194 0 0 1-12 .194 12 .194 0 0 1-12-.194 12 .194 0 0 1 24 0m0 1.662a12 .194 0 0 1-12 .194 12 .194 0 0 1-12-.194 12 .194 0 0 1 24 0m-6.289-6.719a.4.4 0 0 0-.232.025.34.34 0 0 1-.279 0 .4.4 0 0 0-.328.006.2.2 0 0 1-.094.024c-.133 0-.244-.134-.267-.311a.3.3 0 0 0 .066-.072c.078-.126.199-.206.334-.206s.255.08.333.204a.26.26 0 0 0 .221.121h.004c.107-.001.199.084.243.208"/><path d="m18.116 1.862-.215.136.131-.237a.2.2 0 0 0-.13-.046h-.004l-.044-.003-.073.045.031-.057a.26.26 0 0 1-.128-.097l-.131.083.082-.15a.38.38 0 0 0-.292-.148c-.136 0-.256.081-.335.206a.25.25 0 0 1-.221.119h-.007c-.15 0-.271.17-.271.379s.121.379.271.379a.2.2 0 0 0 .094-.024.4.4 0 0 1 .328-.007.34.34 0 0 0 .279 0 .4.4 0 0 1 .325.006.2.2 0 0 0 .093.023c.15 0 .271-.17.271-.379a.5.5 0 0 0-.056-.231m-9.548.437a.3.3 0 0 0-.163.018.24.24 0 0 1-.195 0 .27.27 0 0 0-.23.005.14.14 0 0 1-.066.016c-.093 0-.171-.094-.187-.217a.2.2 0 0 0 .047-.05c.055-.088.139-.145.234-.145s.178.056.233.143a.18.18 0 0 0 .155.085h.002c.074 0 .138.059.169.146" fill="#667eea" opacity=".1"/><path d="m8.851 1.91-.15.095.091-.166a.15.15 0 0 0-.091-.032h-.003l-.031-.002-.051.032.022-.04a.2.2 0 0 1-.089-.068l-.091.058.058-.105a.27.27 0 0 0-.205-.104.28.28 0 0 0-.234.145.18.18 0 0 1-.155.083h-.005c-.105 0-.19.119-.19.265s.085.265.19.265a.14.14 0 0 0 .066-.017.27.27 0 0 1 .229-.004.24.24 0 0 0 .098.022.24.24 0 0 0 .097-.021.28.28 0 0 1 .228.004.14.14 0 0 0 .066.016c.105 0 .19-.119.19-.265a.34.34 0 0 0-.039-.163M5.904 4.013a.3.3 0 0 1 .162.018.24.24 0 0 0 .195 0 .27.27 0 0 1 .23.004.14.14 0 0 0 .066.017c.093 0 .171-.094.187-.218a.2.2 0 0 1-.046-.05c-.055-.088-.139-.144-.234-.144s-.178.056-.233.143a.18.18 0 0 1-.155.085h-.002c-.074 0-.138.06-.169.146" fill="#667eea" opacity=".1"/><path d="m5.62 3.628.151.095-.092-.166a.15.15 0 0 1 .091-.033h.002l.031-.002.051.032-.022-.04a.2.2 0 0 0 .089-.068l.091.058-.057-.105a.27.27 0 0 1 .205-.103c.095 0 .18.056.234.145a.18.18 0 0 0 .155.083h.005c.105 0 .19.119.19.265s-.085.265-.19.265a.14.14 0 0 1-.066-.016.27.27 0 0 0-.23-.005.24.24 0 0 1-.098.022.24.24 0 0 1-.097-.021.27.27 0 0 0-.228.004.14.14 0 0 1-.066.016c-.105 0-.19-.119-.19-.265a.34.34 0 0 1 .039-.163" fill="#667eea" opacity=".1"/><path d="M14.547 10.736c.057-.106-.008-.236-.082-.33s-.166-.193-.164-.313c.003-.173.186-.275.333-.367a1.6 1.6 0 0 0 .299-.241.4.4 0 0 0 .092-.123.5.5 0 0 0 .028-.219q-.009-.37-.037-.739" fill="none" stroke="#3f3d56" stroke-miterlimit="10" stroke-width=".088"/><path d="M15.295 8.392a.27.27 0 0 0-.135-.221l-.06.119.002-.145a.27.27 0 1 0 .193.246m-.481 1.825a.27.27 0 0 1-.509-.109.3.3 0 0 1 .018-.109.27.27 0 0 1 .504.003l-.168.137.185-.044a.3.3 0 0 1-.029.123m-.133-.523a.27.27 0 0 1-.085-.529l-.002.111.061-.121a.27.27 0 1 1 .025.539Zm.655-.436a.27.27 0 1 1 .119-.504l-.048.131.097-.096a.27.27 0 0 1-.169.468Z" fill="#667eea"/><path d="M15.258 8.464c-.062.007-.123.026-.185.03s-.131-.011-.17-.06a1 1 0 0 1-.05-.088.2.2 0 0 0-.068-.064.27.27 0 1 0 .504.179zm.077.794a.27.27 0 0 1-.256-.385.2.2 0 0 1 .054.054 1 1 0 0 0 .053.089c.042.049.114.066.179.062s.128-.022.193-.027l.027-.002a.27.27 0 0 1-.25.208m-.655.436a.27.27 0 0 1-.259-.379.2.2 0 0 1 .057.055 1 1 0 0 0 .058.091c.045.051.122.069.191.066s.131-.018.197-.022a.27.27 0 0 1-.245.19m.133.523a.27.27 0 0 1-.509-.109.3.3 0 0 1 .018-.109.3.3 0 0 1 .059.053c.026.031.042.066.072.096a.34.34 0 0 0 .223.078 1 1 0 0 0 .137-.008" opacity=".1"/><path d="M1.189 9.159c.057-.106-.008-.236-.082-.33s-.166-.193-.164-.313c.003-.173.186-.275.333-.367a1.6 1.6 0 0 0 .299-.241.4.4 0 0 0 .092-.123.5.5 0 0 0 .028-.219q-.01-.37-.037-.739" fill="none" stroke="#3f3d56" stroke-miterlimit="10" stroke-width=".088"/><path d="M1.937 6.815a.27.27 0 0 0-.135-.221l-.06.119.002-.145a.27.27 0 1 0 .193.246m-.481 1.825a.27.27 0 0 1-.509-.109.3.3 0 0 1 .018-.109.27.27 0 0 1 .504.003l-.168.137.185-.044a.3.3 0 0 1-.029.123m-.133-.523a.27.27 0 0 1-.085-.529l-.002.111.061-.121a.27.27 0 1 1 .025.539Zm.655-.436a.27.27 0 1 1 .119-.504l-.048.131.097-.096a.27.27 0 0 1-.169.468Z" fill="#667eea"/><path d="M1.901 6.887c-.062.007-.123.026-.185.03s-.131-.011-.17-.06a1 1 0 0 1-.05-.088.2.2 0 0 0-.068-.064.27.27 0 1 0 .504.179zm.077.794a.27.27 0 0 1-.256-.385.2.2 0 0 1 .054.054 1 1 0 0 0 .053.089c.042.049.114.066.179.062s.128-.022.193-.027l.027-.002a.27.27 0 0 1-.25.208m-.655.436a.27.27 0 0 1-.259-.379.2.2 0 0 1 .057.055 1 1 0 0 0 .058.091c.045.051.122.069.191.066s.131-.018.197-.022a.27.27 0 0 1-.245.19m.133.523a.27.27 0 0 1-.509-.109.3.3 0 0 1 .018-.109.3.3 0 0 1 .059.053c.026.031.042.066.072.096a.34.34 0 0 0 .223.078 1 1 0 0 0 .137-.008" opacity=".1"/><path d="M10.084 7.355c-.057-.106.008-.235.082-.33s.165-.193.163-.313c-.003-.173-.186-.275-.333-.367a1.6 1.6 0 0 1-.299-.241.4.4 0 0 1-.092-.123.5.5 0 0 1-.028-.219q.01-.37.037-.739" fill="none" stroke="#3f3d56" stroke-miterlimit="10" stroke-width=".088"/><path d="M9.337 5.012a.27.27 0 0 1 .134-.221l.06.119-.002-.145a.3.3 0 0 1 .089-.011.27.27 0 1 1-.282.257m.481 1.825a.27.27 0 1 0-.013-.217l.168.137-.185-.044a.3.3 0 0 0 .03.124m.133-.523a.27.27 0 0 0 .086-.529l.001.111-.061-.121a.27.27 0 0 0-.282.256.3.3 0 0 0 .012.092.27.27 0 0 0 .245.191m-.654-.436a.27.27 0 1 0-.119-.504l.048.131-.098-.094a.27.27 0 0 0-.088.186.3.3 0 0 0 .007.074.27.27 0 0 0 .251.206" fill="#667eea"/><path d="M9.373 5.083c.062.007.123.026.185.03s.131-.011.171-.06a1 1 0 0 0 .05-.088.2.2 0 0 1 .068-.064.27.27 0 1 1-.504.179zm-.077.793a.27.27 0 0 0 .256-.385.2.2 0 0 0-.054.054 1 1 0 0 1-.053.089c-.042.049-.114.066-.179.062s-.128-.022-.193-.027l-.027-.002a.27.27 0 0 0 .25.208m.654.436a.27.27 0 0 0 .259-.379.2.2 0 0 0-.057.055 1 1 0 0 1-.058.091c-.046.051-.122.069-.191.066s-.131-.018-.197-.022a.27.27 0 0 0 .245.19m-.133.523a.27.27 0 0 0 .492-.219.3.3 0 0 0-.059.053c-.026.031-.044.066-.072.096a.34.34 0 0 1-.223.078 1 1 0 0 1-.137-.008" opacity=".1"/><path fill="#3f3d56" d="M19.263 5.216a2.19 2.19 0 0 1-2.189 2.189 2.19 2.19 0 0 1-2.189-2.189 2.189 2.189 0 0 1 4.378 0"/><path d="M18.014 5.78a1.7 1.7 0 0 0-.35-.234c-.105-.05-.143-.049-.218.004-.062.044-.102.086-.173.071s-.212-.122-.348-.257-.242-.275-.257-.347.026-.111.071-.173c.053-.074.055-.113.004-.218-.044-.091-.157-.274-.234-.35s-.094-.06-.136-.044a1 1 0 0 0-.124.066c-.076.051-.119.094-.149.157s-.064.183.111.493a2.8 2.8 0 0 0 .484.645 2.8 2.8 0 0 0 .648.485c.311.175.429.14.493.111s.106-.072.157-.149a1 1 0 0 0 .066-.124c.014-.042.032-.059-.045-.136" fill="#667eea"/><path d="M17.074 3.027a2.19 2.19 0 1 0 2.189 2.189 2.19 2.19 0 0 0-2.189-2.189m0 4.087a1.898 1.898 0 1 1 1.898-1.898 1.9 1.9 0 0 1-1.898 1.898" opacity=".1"/><path fill="#3f3d56" d="M14.234 8.54a2.19 2.19 0 0 1-2.188 2.189A2.19 2.19 0 0 1 9.857 8.54a2.189 2.189 0 0 1 4.377 0"/><path d="m13.29 7.879-.655.667a.012.012 0 0 0 0 .017l.46.489a.079.079 0 0 1-.056.135.08.08 0 0 1-.056-.023l-.457-.487a.012.012 0 0 0-.018 0l-.111.113a.5.5 0 0 1-.35.147.5.5 0 0 1-.356-.152l-.107-.109a.012.012 0 0 0-.018 0l-.456.486a.08.08 0 0 1-.112 0 .08.08 0 0 1 0-.112l.458-.488a.013.013 0 0 0 0-.017l-.655-.667a.012.012 0 0 0-.021.009v1.334a.195.195 0 0 0 .195.195h2.142a.195.195 0 0 0 .195-.195V7.888a.012.012 0 0 0-.021-.009" fill="#667eea"/><path d="M12.046 8.778a.33.33 0 0 0 .239-.099l.954-.971a.2.2 0 0 0-.12-.044h-2.145a.2.2 0 0 0-.12.044l.955.972a.33.33 0 0 0 .237.099" fill="#667eea"/><path d="M12.018 6.352a2.19 2.19 0 1 0 2.189 2.189 2.19 2.19 0 0 0-2.189-2.189m0 4.087a1.898 1.898 0 1 1 1.898-1.898 1.9 1.9 0 0 1-1.898 1.898" opacity=".1"/><path fill="#3f3d56" d="M9.04 6.906a2.19 2.19 0 0 1-2.189 2.189 2.19 2.19 0 0 1-2.189-2.189 2.189 2.189 0 0 1 4.378 0"/><path d="m6.851 5.858-.873 2.014.081.081.791-.349.792.349.081-.081Z" fill="#667eea"/><path d="M6.851 4.716a2.19 2.19 0 1 0 2.189 2.19 2.19 2.19 0 0 0-2.189-2.19m0 4.087a1.898 1.898 0 1 1 1.898-1.897 1.9 1.9 0 0 1-1.898 1.898Z" opacity=".1"/><path d="m18.415 13.224-.061-.145a.4.4 0 0 0-.075-.129.14.14 0 0 0-.044-.033.2.2 0 0 0-.057-.011.5.5 0 0 0-.09-.002l-.038-.013a.31.31 0 0 0 .233-.29v-.013a.31.31 0 0 0-.311-.313.3.3 0 0 0-.163.047.29.29 0 0 0-.328.158.36.36 0 0 0-.112.269v.014c.006.17.116.307.254.32a.2.2 0 0 0-.04.027c-.042.041-.049.106-.054.165l-.003.044-.074.026a.014.014 0 0 0-.003.024l.07.05v.012l.001.014a.1.1 0 0 0-.027.039.2.2 0 0 0-.006.071l.003.061a.5.5 0 0 0 .019.136c.009.027.049.093.078.093-.026.12-.034.374-.034.374q-.003.004.022.009c.016.121.067.46.159.609a1 1 0 0 1 .034.148s.026.322.06.418c.029.081.053.282.059.341a.03.03 0 0 0-.024.025c-.017.052-.129.131-.129.131a.5.5 0 0 0-.097.062c-.035.032-.034.06.123.042.302-.035.354-.131.354-.131l-.012-.037a.4.4 0 0 0-.04-.094q-.006-.004-.014.014a2 2 0 0 1-.021-.423s.009-.148-.035-.252a.5.5 0 0 1 0-.165c.017-.07-.069-.409-.069-.409l-.049-.252a.1.1 0 0 1 .014.029l.001.005.001.007.004.007c.034.14.126.528.126.585 0 .07.086.244.086.244s.034.287.095.4c.046.086.047.212.045.268s-.01.072-.028.089a.2.2 0 0 0-.033.057l-.002.004s-.026.052-.009.061a.4.4 0 0 0 .207.026s.035-.044.035-.061l-.004-.031-.018-.107c.007-.028-.022-.106-.022-.106l-.009-.244a1.1 1.1 0 0 0-.06-.488s-.044-.157-.034-.2-.017-.505-.017-.505l-.003-.007a.5.5 0 0 1 .003-.098 1.3 1.3 0 0 0-.035-.331.3.3 0 0 1-.012-.072l.016-.138a3 3 0 0 0 .254-.022.03.03 0 0 0 .022-.009.03.03 0 0 0 .005-.018c.01-.131-.038-.259-.088-.38m-.173.28c.009-.062.019-.123.028-.168l.001.004a1 1 0 0 1 .042.138z" transform="translate(-52 -162.63)" fill="url(#a)"/><path d="M16.431 10.643s.052.465.164.646a1 1 0 0 1 .034.146s.026.318.06.413.06.353.06.353.12.138.164.026a1.8 1.8 0 0 1-.026-.448s.009-.146-.034-.25a.5.5 0 0 1 0-.163c.017-.069-.069-.404-.069-.404l-.069-.336Z" fill="#be6f72"/><path d="M16.974 12.313s-.052.095-.353.129c-.156.018-.157-.011-.122-.042a.6.6 0 0 1 .096-.061s.112-.077.129-.129.078-.009.078-.009c.086.129.103-.035.12-.017a.4.4 0 0 1 .04.092z" fill="#ff6f61"/><path d="M16.974 12.313s-.052.095-.353.129c-.156.018-.157-.011-.122-.042.025.016.074.022.174-.018.143-.059.247-.093.289-.106zm-.086-.534s.009-.146-.034-.25a.5.5 0 0 1 0-.163c.017-.069-.069-.404-.069-.404l-.069-.336-.06.004.068.332s.086.335.069.404a.5.5 0 0 0 0 .163c.044.103.034.25.034.25a1.8 1.8 0 0 0 .026.448.1.1 0 0 1-.025.035c.032.014.066.014.085-.035a1.8 1.8 0 0 1-.026-.448" opacity=".1"/><path d="M16.832 8.755a.3.3 0 0 0-.162.046.29.29 0 0 0-.328.157.36.36 0 0 0-.111.266c0 .183.123.331.275.331.109 0 .205-.078.249-.191a.3.3 0 0 0 .078.01.31.31 0 0 0 0-.62Z" fill="#3f3d56"/><path d="m17.086 10.687.026.069s.026.456.017.499.035.197.035.197a1.1 1.1 0 0 1 .06.482l.009.241s.034.095.017.112-.147-.015-.147-.015.017-.181-.044-.293-.095-.396-.095-.396-.086-.172-.086-.241-.138-.628-.138-.628Z" fill="#be6f72"/><path d="M16.414 10.678s.009-.31.044-.404a.6.6 0 0 0 .038-.137s.521.094.564.06c0 0 .009.12.017.129s.044.224.034.327 0 .103 0 .103-.353.052-.362 0-.034-.051-.034-.051-.319-.01-.302-.026" fill="#3f3d56"/><g opacity=".1"><path d="M16.698 10.678s-.218-.006-.283-.018v.018c-.017.017.301.026.301.026l.012.005c-.012-.031-.03-.031-.03-.031m.379-.353c-.009-.009-.017-.129-.017-.129l-.015.005c.003.036.009.092.015.098s.044.224.034.327 0 .103 0 .103-.279.041-.347.014l.003.012c.009.052.362 0 .362 0s-.009 0 0-.103-.026-.318-.034-.327"/><path d="M17.837 14.239s-.218-.006-.283-.018v.018c-.017.017.301.026.301.026l.012.005c-.012-.031-.03-.031-.03-.031m.379-.353c-.009-.009-.017-.129-.017-.129l-.015.005c.003.036.009.092.015.098s.044.224.034.327 0 .103 0 .103-.279.041-.347.014l.003.012c.009.052.362 0 .362 0s-.009 0 0-.103-.026-.318-.034-.327" transform="translate(-52 -162.63)" fill="url(#b)"/></g><path d="M16.793 9.297a.1.1 0 0 0 .033.042.1.1 0 0 0 .031.013l-.06.031a1 1 0 0 0-.088.066.2.2 0 0 1-.101.039.12.12 0 0 0 .014-.122.1.1 0 0 1-.015-.042c0-.025.022-.044.042-.057l.05-.033c.013-.008.034-.026.05-.025s.019.016.022.031a.2.2 0 0 0 .02.058" fill="#be6f72"/><path d="M16.793 9.297a.1.1 0 0 0 .033.042.1.1 0 0 0 .031.013l-.06.031a1 1 0 0 0-.088.066.2.2 0 0 1-.101.039.12.12 0 0 0 .014-.122.1.1 0 0 1-.015-.042c0-.025.022-.044.042-.057l.05-.033c.013-.008.034-.026.05-.025s.019.016.022.031a.2.2 0 0 0 .02.058" opacity=".1"/><path fill="#be6f72" d="M17.193 9.607a.2.2 0 0 1-.198.198.2.2 0 0 1-.198-.198.198.198 0 0 1 .396 0"/><path d="M17.275 12.416c0 .017-.034.06-.034.06a.4.4 0 0 1-.206-.026c-.017-.009.009-.06.009-.06l.002-.004a.2.2 0 0 1 .033-.056c.017-.017.027-.088.027-.088.053-.088.148.038.148.038l.018.106.004.03" fill="#ff6f61"/><path d="M17.275 12.416c0 .017-.034.06-.034.06a.4.4 0 0 1-.206-.026c-.017-.009.009-.06.009-.06l.002-.004a.4.4 0 0 0 .187.039l.039-.039.004.031" opacity=".1"/><path fill="#be6f72" d="M16.793 9.193a.194.194 0 0 1-.194.194.194.194 0 0 1-.193-.194.194.194 0 0 1 .387 0m-.35.388c-.042.041-.049.105-.054.163l-.007.086a.4.4 0 0 0-.002.069l.005.044c.003.023.002.034.002.051v.127a.15.15 0 0 0 .014.076.05.05 0 0 0 .066.024.1.1 0 0 0 .027-.042.7.7 0 0 0 .044-.16l.004-.057.008-.058q.017-.121.023-.243c.002-.024.023-.119-.008-.129-.015-.005-.047.011-.062.016a.2.2 0 0 0-.06.035"/><path d="M16.443 9.581c-.042.041-.049.105-.054.163l-.007.086a.4.4 0 0 0-.002.069l.005.044c.003.023.002.034.002.051v.127a.15.15 0 0 0 .014.076.05.05 0 0 0 .066.024.1.1 0 0 0 .027-.042.7.7 0 0 0 .044-.16l.004-.057.008-.058q.017-.121.023-.243c.002-.024.023-.119-.008-.129-.015-.005-.047.011-.062.016a.2.2 0 0 0-.06.035" opacity=".1"/><path d="M16.844 9.318s-.146.112-.232.138c0 0-.051.058-.06.072s-.026.169-.044.203-.06.112 0 .189c0 0 .017.078.009.103s-.04.12-.011.125.115.064.192.047.366.066.366.066.048-.443.082-.522l-.078-.026s-.215-.129-.086-.327c0 0-.121-.026-.138-.069" fill="#ff6f61"/><path d="m16.31 9.836.178.126a.013.013 0 0 0 .016 0l.048-.036a.014.014 0 0 0 0-.021l-.137-.122a.01.01 0 0 0-.013-.003l-.088.032a.013.013 0 0 0-.004.023" fill="#3f3d56"/><path d="M16.37 10.216a.5.5 0 0 1-.019-.134l-.003-.061a.2.2 0 0 1 .006-.07.12.12 0 0 1 .074-.065.3.3 0 0 1 .101-.007l.013.004a.02.02 0 0 1 .007.012.08.08 0 0 1 .004.063.1.1 0 0 1-.02.021c-.024.017-.052.028-.074.047a.03.03 0 0 0-.01.013v.014l.011.035a.04.04 0 0 0 .01.015l.014.008c.009.008.029.018.028.03-.003.044-.03.093-.04.136-.02.085-.09-.023-.102-.06" fill="#be6f72"/><path d="M16.647 10.196h-.005a.2.2 0 0 0 .056 0h.005a.2.2 0 0 0-.057 0m.452-.469c-.031.069-.076.445-.085.52l.05.014s.047-.442.082-.521Z" opacity=".1"/><path d="M17.002 9.613a.07.07 0 0 0 .028.043.4.4 0 0 1 .05.051.4.4 0 0 1 .05.1 1 1 0 0 1 .041.136c-.109.051-.234.048-.35.082a.3.3 0 0 0-.131.078.18.18 0 0 0-.048.143l.003.009a.02.02 0 0 0 .015.006.13.13 0 0 0 .08-.028.4.4 0 0 0 .062-.06.1.1 0 0 1 .044-.032c.063-.019.131-.018.197-.019a3 3 0 0 0 .294-.023.024.024 0 0 0 .026-.026c.01-.129-.038-.255-.088-.375l-.061-.143a.4.4 0 0 0-.074-.127.1.1 0 0 0-.044-.032.2.2 0 0 0-.059-.011.4.4 0 0 0-.096-.002.2.2 0 0 0-.009.05.4.4 0 0 0 .053.168c.003.008.013.009.018.016" fill="#be6f72"/><path d="M16.651 9.724a.16.16 0 0 0-.022.084.1.1 0 0 0 .005.034.11.11 0 0 0 .07.066" fill="none" stroke="#000" stroke-miterlimit="10" opacity=".1" stroke-width=".022"/><path d="M16.763 9.004a.1.1 0 0 0-.032.005c-.029-.044-.096-.074-.175-.074-.105 0-.189.054-.189.121s.085.12.189.12a.3.3 0 0 0 .114-.024.103.103 0 1 0 .093-.148" fill="#3f3d56"/><path d="M16.771 9.185a.1.1 0 0 1-.093-.058.3.3 0 0 1-.114.024c-.104 0-.189-.054-.189-.12v-.012a.1.1 0 0 0-.01.038c0 .066.085.12.189.12a.3.3 0 0 0 .114-.024.103.103 0 0 0 .194-.026.1.1 0 0 1-.092.058" opacity=".1"/><path d="M16.341 9.008a.29.29 0 0 1 .328-.157.31.31 0 0 1 .471.238v-.026a.31.31 0 0 0-.472-.263.29.29 0 0 0-.328.157.36.36 0 0 0-.111.266v.026a.35.35 0 0 1 .113-.241" opacity=".1"/><path d="M18.315 9.074c.057-.106-.008-.236-.082-.33s-.165-.192-.163-.313c.003-.173.186-.275.333-.367a1.6 1.6 0 0 0 .299-.241.4.4 0 0 0 .092-.123.5.5 0 0 0 .028-.219q-.01-.37-.037-.739" fill="none" stroke="#3f3d56" stroke-miterlimit="10" stroke-width=".088"/><path d="M19.062 6.729a.27.27 0 0 0-.134-.221l-.06.119.002-.145a.3.3 0 0 0-.089-.011.27.27 0 1 0 .282.257m-.481 1.825a.27.27 0 1 1 .013-.217l-.168.137.185-.044a.3.3 0 0 1-.03.124m-.133-.524a.27.27 0 0 1-.086-.529l-.001.111.061-.121a.27.27 0 0 1 .282.257.27.27 0 0 1-.257.282Zm.654-.435a.27.27 0 1 1 .119-.504l-.048.131.098-.094a.27.27 0 0 1 .088.186.3.3 0 0 1-.007.074.27.27 0 0 1-.251.206" fill="#667eea"/><path d="M19.026 6.801c-.062.007-.123.026-.185.03s-.131-.011-.171-.06a1 1 0 0 1-.05-.088.2.2 0 0 0-.068-.064.27.27 0 1 0 .504.179zm.077.794a.27.27 0 0 1-.256-.385.2.2 0 0 1 .054.054 1 1 0 0 0 .053.089c.042.049.114.066.179.063s.128-.022.193-.027l.027-.002a.27.27 0 0 1-.25.208m-.654.435a.27.27 0 0 1-.259-.38.2.2 0 0 1 .057.055c.022.03.034.064.058.091.046.051.122.069.191.067s.131-.018.197-.023a.27.27 0 0 1-.245.19m.133.524a.27.27 0 0 1-.492-.219.3.3 0 0 1 .059.053c.026.031.043.066.072.096a.34.34 0 0 0 .223.078 1 1 0 0 0 .137-.008" opacity=".1"/><path d="M21.797 12.402c.057-.106-.008-.236-.082-.33s-.165-.192-.163-.313c.003-.173.186-.275.333-.367a1.6 1.6 0 0 0 .299-.241.4.4 0 0 0 .092-.123.5.5 0 0 0 .028-.219q-.009-.37-.037-.739" fill="none" stroke="#3f3d56" stroke-miterlimit="10" stroke-width=".088"/><path d="M22.544 10.058a.27.27 0 0 0-.134-.221l-.06.119.002-.145a.3.3 0 0 0-.088-.011.27.27 0 1 0 .282.257Zm-.481 1.825a.27.27 0 1 1 .013-.217l-.168.137.185-.044a.3.3 0 0 1-.03.124m-.133-.524a.27.27 0 0 1-.086-.529l-.001.111.061-.121a.27.27 0 0 1 .282.257.27.27 0 0 1-.257.282Zm.654-.435a.27.27 0 1 1 .119-.504l-.048.131.098-.094a.27.27 0 0 1 .088.186.3.3 0 0 1-.007.074.27.27 0 0 1-.251.206" fill="#667eea"/><path d="M22.508 10.129c-.062.007-.123.026-.185.03s-.131-.011-.171-.06a1 1 0 0 1-.05-.088.2.2 0 0 0-.068-.064.27.27 0 1 0 .504.179zm.077.794a.27.27 0 0 1-.256-.385.2.2 0 0 1 .054.054 1 1 0 0 0 .053.089c.042.049.114.066.179.063s.128-.022.193-.027l.027-.002a.27.27 0 0 1-.25.208m-.654.435a.27.27 0 0 1-.259-.38.2.2 0 0 1 .057.055c.022.03.034.064.058.091.046.051.122.069.191.067s.131-.018.197-.023a.27.27 0 0 1-.245.19m.133.524a.27.27 0 0 1-.492-.219.3.3 0 0 1 .059.053c.026.031.044.066.072.096a.34.34 0 0 0 .223.078 1 1 0 0 0 .137-.008" opacity=".1"/><path d="M11.606 12.874a.22.22 0 0 0-.086-.173.25.25 0 0 0-.21-.247.25.25 0 0 0-.168-.187l-.031-.007h-.037a.25.25 0 0 0-.238.211c-.077-.018-.147.005-.16.054a.1.1 0 0 0 .002.039c.013.038.056.074.113.092l.007.002.011.003h.002a.2.2 0 0 0-.018.083.19.19 0 0 0 .103.171l-.005.003a.1.1 0 0 0-.017.023.4.4 0 0 0-.032.078c-.005.023-.006.047-.013.07-.013.042-.045.078-.049.122-.002.02.002.044-.012.056l-.011.008a.1.1 0 0 0-.024.026.1.1 0 0 1-.017.025c-.013.009-.034.009-.04.023s.01.032.006.048-.017.019-.027.028a.1.1 0 0 0-.023.044.14.14 0 0 1-.118-.03.2.2 0 0 1 .012.044.2.2 0 0 0-.064-.032.2.2 0 0 1-.068-.05l.036-.005-.161-.245-.048-.01.042.082a.03.03 0 0 0-.014.017l-.002.028.011.066.012.057.004.016a.2.2 0 0 0-.048.005.4.4 0 0 0-.099-.023h-.022l-.021.017a1 1 0 0 0-.073.103c-.088.15-.202.281-.31.417l-.225.088-.162.062a.3.3 0 0 1-.1.022c-.015 0-.034-.003-.044.01l-.01.022-.017.002a.2.2 0 0 0-.039-.071.03.03 0 0 0-.018.014l-.011.022c-.009.013-.024.019-.034.03s-.018.027-.029.038a.1.1 0 0 1-.055.022.4.4 0 0 0-.086.033.1.1 0 0 1-.032.015.1.1 0 0 1-.037.001l-.085-.006-.023.001a.044.044 0 0 0-.027.044.07.07 0 0 0 .027.047.2.2 0 0 0 .049.025 1.4 1.4 0 0 0 .228.067v.017a.4.4 0 0 0 .175.042l.013-.002a.03.03 0 0 0 .011-.017.7.7 0 0 0 .034-.168.1.1 0 0 0 .031-.008c.029-.008.059.012.089.015.037.004.072-.018.108-.031l.015-.005a.2.2 0 0 1-.035.034l-.045.029-.039.03-.03.011a.2.2 0 0 0-.042.022.1.1 0 0 0-.029.028.04.04 0 0 0-.002.039.04.04 0 0 0 .028.02.1.1 0 0 0 .035 0l.139-.012a.4.4 0 0 0 .058-.008l.03-.009a.3.3 0 0 1 .053-.008l.015.002c.011.004.018.014.029.017a.04.04 0 0 0 .022-.003.5.5 0 0 1 .103-.011c.015 0 .033-.004.04-.018s-.006-.037-.011-.055l-.005-.036a.2.2 0 0 0-.025-.086.2.2 0 0 1-.019-.039 1 1 0 0 0 .189-.096.3.3 0 0 1 .108-.052.3.3 0 0 1 .135.016 3 3 0 0 1 .31.108q.072.032.146.056a.2.2 0 0 0 .052.051.24.24 0 0 0 .113.031 2 2 0 0 0 .159.006.3.3 0 0 0 .118-.022l.025-.016a.1.1 0 0 0 .078-.029.2.2 0 0 0 .059-.094c.013-.05.003-.109.034-.149l.027-.031a.1.1 0 0 0 .014-.051l.001-.002a.2.2 0 0 0 .013-.05l.014-.04a1 1 0 0 0 .041-.118l.019-.081.007-.066a.4.4 0 0 1 .02-.101.8.8 0 0 0 .046-.243v-.005a.163.163 0 0 0 .144-.166.2.2 0 0 0-.015-.071.2.2 0 0 0 .029-.11m-.784.952.008.025-.038-.038.015.005.014.008Zm-.062-.042c-.076-.066-.163-.117-.241-.18q.063.033.124.068.072.041.147.079a.1.1 0 0 1-.031.033Zm.032-.166.004-.004v.026l-.02-.007zm-.666.177a.6.6 0 0 0 .081-.115c.03.052.079.09.12.134a2 2 0 0 0-.201-.019" transform="translate(-52 -162.63)" fill="url(#c)"/><path fill="#2f2e41" d="m9.095 9.597.048.01.163.241-.072.01z"/><path d="M7.938 10.573a1 1 0 0 0 .048.124 1 1 0 0 0 .159-.045l-.033-.044a.2.2 0 0 0-.045-.034.1.1 0 0 0-.055 0z" fill="#fbbebe"/><path d="M8.066 10.637a.1.1 0 0 1-.054-.062.2.2 0 0 0-.041-.074.02.02 0 0 0-.018.014l-.011.022c-.009.012-.024.019-.035.029s-.018.027-.029.038a.1.1 0 0 1-.055.022.4.4 0 0 0-.088.032l-.032.014a.1.1 0 0 1-.038 0l-.086-.006h-.022a.04.04 0 0 0-.027.044.07.07 0 0 0 .027.046.2.2 0 0 0 .049.025 1.5 1.5 0 0 0 .231.066v.017a.4.4 0 0 0 .176.041l.013-.002a.03.03 0 0 0 .011-.017.7.7 0 0 0 .036-.187.2.2 0 0 0-.004-.048c-.005-.016.011-.009-.004-.015" fill="#2f2e41"/><path d="M9.721 10.312c-.256.015-.508-.06-.765-.067a.4.4 0 0 0-.095.006.5.5 0 0 0-.094.037c-.137.064-.279.117-.421.17l-.163.061a.3.3 0 0 1-.101.022c-.016 0-.035-.003-.044.01-.026.039-.014.097.004.141.006.014.015.03.031.031a.1.1 0 0 0 .031-.008c.03-.008.059.012.09.015.038.004.073-.018.108-.031.059-.022.124-.022.186-.032a.8.8 0 0 0 .291-.121.3.3 0 0 1 .108-.051.3.3 0 0 1 .136.016 3 3 0 0 1 .313.106 2 2 0 0 0 .163.06.6.6 0 0 0 .366-.022c.041-.016.085-.044.088-.089.002-.025-.018-.047-.031-.069l-.026-.041c-.044-.064-.097-.148-.175-.144" fill="#2f2e41"/><path d="M9.721 10.312c-.256.015-.508-.06-.765-.067a.4.4 0 0 0-.095.006.5.5 0 0 0-.094.037c-.137.064-.279.117-.421.17l-.163.061a.3.3 0 0 1-.101.022c-.016 0-.035-.003-.044.01-.026.039-.014.097.004.141.006.014.015.03.031.031a.1.1 0 0 0 .031-.008c.03-.008.059.012.09.015.038.004.073-.018.108-.031.059-.022.124-.022.186-.032a.8.8 0 0 0 .291-.121.3.3 0 0 1 .108-.051.3.3 0 0 1 .136.016 3 3 0 0 1 .313.106 2 2 0 0 0 .163.06.6.6 0 0 0 .366-.022c.041-.016.085-.044.088-.089.002-.025-.018-.047-.031-.069l-.026-.041c-.044-.064-.097-.148-.175-.144" opacity=".1"/><path d="M8.429 10.585q.06.02.121.038c.022-.037.066-.064.075-.106v-.006l-.005-.004a.2.2 0 0 0-.095-.028c-.026-.002-.038.026-.05.045-.005.009-.036.065-.046.061" fill="#fbbebe"/><path d="M8.485 10.558a.1.1 0 0 1-.059-.039c-.005-.01-.012-.023-.023-.022s-.015.013-.018.023a1 1 0 0 1-.033.114.2.2 0 0 1-.071.093l-.046.029-.039.029-.03.011a.2.2 0 0 0-.042.022.1.1 0 0 0-.029.028.04.04 0 0 0-.002.039.04.04 0 0 0 .028.019.1.1 0 0 0 .035 0q.07-.004.14-.012a.4.4 0 0 0 .058-.008l.03-.008a.2.2 0 0 1 .053-.008l.016.002c.011.004.018.014.03.016l.022-.003a.5.5 0 0 1 .104-.011c.015 0 .033-.004.04-.018.009-.017-.006-.036-.012-.055l-.005-.036a.2.2 0 0 0-.026-.085c-.012-.022-.028-.046-.02-.069l.008-.024c-.003-.038-.09-.024-.111-.029" fill="#2f2e41"/><path d="M9.338 9.902a.2.2 0 0 1-.102-.101l-.012-.03a.2.2 0 0 0-.061-.085.03.03 0 0 0-.022-.009.02.02 0 0 0-.016.018l-.002.027.011.064.012.056.008.025a.1.1 0 0 0 .021.025l.035.031.022.015a.1.1 0 0 0 .039.011.3.3 0 0 1 .145.056s0-.038 0-.042a.1.1 0 0 0-.011-.03.2.2 0 0 0-.067-.031" fill="#fbbebe"/><path d="M9.338 9.902a.2.2 0 0 1-.102-.101l-.012-.03a.2.2 0 0 0-.061-.085.03.03 0 0 0-.022-.009.02.02 0 0 0-.016.018l-.002.027.011.064.012.056.008.025a.1.1 0 0 0 .021.025l.035.031.022.015a.1.1 0 0 0 .039.011.3.3 0 0 1 .145.056s0-.038 0-.042a.1.1 0 0 0-.011-.03.2.2 0 0 0-.067-.031" opacity=".1"/><path fill="#2f2e41" d="M9.921 9.407a.062.063 0 0 1-.063.062.062.063 0 0 1-.062-.062.062.063 0 0 1 .125 0"/><path d="M9.82 9.369a.07.07 0 0 0-.049.007.1.1 0 0 0-.017.023.3.3 0 0 0-.032.076c-.005.022-.006.047-.013.069-.013.042-.045.077-.049.12-.002.019.002.042-.013.055l-.011.008a.1.1 0 0 0-.025.025.1.1 0 0 1-.017.024c-.013.009-.034.009-.04.022s.01.032.006.047-.018.019-.027.028a.1.1 0 0 0-.024.044.15.15 0 0 1-.119-.03.4.4 0 0 1 .019.136.06.06 0 0 1-.011.042 1 1 0 0 1 .146.025.1.1 0 0 0 .064 0 .1.1 0 0 0 .029-.023c.026-.027.054-.056.06-.093l.001-.063a.4.4 0 0 1 .016-.076 1 1 0 0 0 .028-.157c.003-.033.031-.059.046-.088a.4.4 0 0 0 .059-.175c.001-.02-.006-.045-.027-.048" fill="#2f2e41"/><path d="M9.82 9.369a.07.07 0 0 0-.049.007.1.1 0 0 0-.017.023.3.3 0 0 0-.032.076c-.005.022-.006.047-.013.069-.013.042-.045.077-.049.12-.002.019.002.042-.013.055l-.011.008a.1.1 0 0 0-.025.025.1.1 0 0 1-.017.024c-.013.009-.034.009-.04.022s.01.032.006.047-.018.019-.027.028a.1.1 0 0 0-.024.044.15.15 0 0 1-.119-.03.4.4 0 0 1 .019.136.06.06 0 0 1-.011.042 1 1 0 0 1 .146.025.1.1 0 0 0 .064 0 .1.1 0 0 0 .029-.023c.026-.027.054-.056.06-.093l.001-.063a.4.4 0 0 1 .016-.076 1 1 0 0 0 .028-.157c.003-.033.031-.059.046-.088a.4.4 0 0 0 .059-.175c.001-.02-.006-.045-.027-.048" opacity=".1"/><path d="M9.762 10.366c-.053-.025-.092-.072-.135-.113-.082-.077-.183-.131-.269-.204-.057-.048-.109-.104-.171-.144a.4.4 0 0 0-.184-.064h-.022l-.021.016a1 1 0 0 0-.074.102c-.109.186-.265.342-.394.515l-.006.012a.03.03 0 0 0 .005.019l.026.051c.015.029.038.062.07.057a.1.1 0 0 0 .037-.023l.118-.113.124-.118a1 1 0 0 0 .193-.228c.037.064.102.106.147.164q.024.034.046.07.037.056.08.109l.142.181a.3.3 0 0 0 .066.066.25.25 0 0 0 .114.03 2 2 0 0 0 .16.006.3.3 0 0 0 .119-.022.11.11 0 0 0 .065-.096.14.14 0 0 0-.02-.06.5.5 0 0 0-.213-.214" fill="#2f2e41"/><path fill="#e8e8f0" d="M9.945 9.45a.05.05 0 0 1-.048.048.05.05 0 0 1-.048-.048.048.048 0 0 1 .096 0"/><path d="M9.886 9.414a.1.1 0 0 1 .005.069.3.3 0 0 1-.031.064.3.3 0 0 1-.04.057.4.4 0 0 0 .211-.06.3.3 0 0 0 .133-.116.06.06 0 0 1-.049-.009.2.2 0 0 1-.037-.035l-.037-.042-.022-.03a.1.1 0 0 1-.01-.048.3.3 0 0 1-.049.041c-.026.017-.056.03-.082.047-.009.006-.03.016-.025.028s.026.022.034.035" fill="#fbbebe"/><path d="M9.886 9.414a.1.1 0 0 1 .005.069.3.3 0 0 1-.031.064.3.3 0 0 1-.04.057.4.4 0 0 0 .211-.06.3.3 0 0 0 .133-.116.06.06 0 0 1-.049-.009.2.2 0 0 1-.037-.035l-.037-.042-.022-.03a.1.1 0 0 1-.01-.048.3.3 0 0 1-.049.041c-.026.017-.056.03-.082.047-.009.006-.03.016-.025.028s.026.022.034.035" opacity=".1"/><path d="M9.887 9.421a.06.06 0 0 0 0 .072c.002.003.01.019.013.019l.008-.004.047-.056a.1.1 0 0 1 .06-.039.13.13 0 0 1 .082.026.1.1 0 0 1 .028.022.1.1 0 0 1 .009.031 2 2 0 0 1 .008.199 1 1 0 0 1-.009.143q-.009.036-.015.073l-.003.066v.092a.2.2 0 0 0 .004.05c.004.02.014.039.02.058a.4.4 0 0 1 .013.069l.012.095c.004.03.007.062-.011.088l-.027.03c-.031.04-.022.098-.034.147a.2.2 0 0 1-.06.092.1.1 0 0 1-.079.028c-.039-.007-.062-.047-.072-.085s-.014-.079-.037-.111a.3.3 0 0 0-.073-.061.13.13 0 0 1-.057-.074c-.002-.014 0-.028-.002-.042a.1.1 0 0 0-.061-.08c-.02-.008-.044-.011-.055-.028a.13.13 0 0 0 .058-.077.4.4 0 0 0 .014-.098l.007-.109c.003-.049.004-.098.026-.142l.032-.058a1 1 0 0 0 .034-.085q.024-.067.046-.136a.3.3 0 0 1 .025-.063c.012-.021.029-.045.051-.05" fill="#e8e8f0"/><path d="M9.643 10.136h.029l.006-.044.006-.026.017-.025c.028-.041.026-.094.034-.143a.7.7 0 0 1 .064-.187l.056-.126.012-.032.004-.037c0-.019.006-.09.007-.109 0-.007-.016-.003-.019-.01-.007-.014-.017.024-.03.032a.1.1 0 0 0-.026.038l-.031.097a.2.2 0 0 1-.053.086q-.019.014-.036.029c-.035.035-.039.09-.04.139-.001.03-.007.318 0 .318m.419-.767a.1.1 0 0 0-.052.071.4.4 0 0 1-.026.088c-.035.062-.126.08-.151.146a.3.3 0 0 0-.01.069c-.004.048-.02.094-.025.142a1 1 0 0 0 .003.111l.032.377a.5.5 0 0 1-.009.166.16.16 0 0 0 .095-.016q.044-.023.085-.048c.049-.027.103-.046.146-.082a.1.1 0 0 0 .02-.022.2.2 0 0 0 .013-.049l.014-.039a1 1 0 0 0 .041-.116l.019-.08q.005-.033.007-.066a.4.4 0 0 1 .02-.1.8.8 0 0 0 .046-.239.1.1 0 0 0-.002-.035.2.2 0 0 0-.019-.04q-.018-.039-.033-.077a.4.4 0 0 0-.129-.136c-.025-.017-.055-.036-.084-.025" fill="#2f2e41"/><path d="M9.401 9.984a.2.2 0 0 1-.06-.046l-.022-.029a.15.15 0 0 0-.076-.044.4.4 0 0 0-.088-.009.2.2 0 0 0-.058.007.06.06 0 0 0-.039.042.07.07 0 0 0 .03.061.14.14 0 0 0 .059.028L9.2 10c.105.011.198.068.29.12q.121.069.247.128l.004-.076c0-.019-.002-.048-.019-.059a.4.4 0 0 0-.078-.023 1 1 0 0 1-.158-.064 1 1 0 0 1-.084-.044m.643-.777a.187.188 0 0 1-.187.187.187.188 0 0 1-.186-.187.187.188 0 0 1 .373 0" fill="#fbbebe"/><path d="M10.115 9.581a.3.3 0 0 0-.036.068c-.022.047-.059.088-.077.138s-.018.115-.056.155a.1.1 0 0 0-.016.024l-.002.017c-.005.015-.03.016-.034.031l-.002.014c-.004.01-.017.011-.025.017-.018.012-.014.041-.027.058a.05.05 0 0 1-.047.016.2.2 0 0 1-.048-.018l-.018-.005a.04.04 0 0 0-.02.007.12.12 0 0 0-.05.106.4.4 0 0 0 .029.119l.009.018a.04.04 0 0 0 .046.004.2.2 0 0 1 .045-.02c.029-.005.057.015.086.013a.1.1 0 0 0 .058-.026.3.3 0 0 0 .078-.066q.018-.026.033-.054l.047-.063.108-.131.029-.04a.3.3 0 0 0 .022-.06.5.5 0 0 0 .022-.107.4.4 0 0 0-.008-.09.3.3 0 0 0-.022-.086c-.023-.049-.08-.09-.124-.039" fill="#2f2e41"/><path d="M10.49 9.337a.21.21 0 0 0-.086-.171.25.25 0 0 0-.212-.243.242.242 0 0 0-.478.013c-.078-.018-.148.005-.161.053s.042.109.124.131a.2.2 0 0 0 .079.008.24.24 0 0 0 .167.104.25.25 0 0 0 .182.188.2.2 0 0 0 .056.078v.018a.158.158 0 1 0 .316 0 .2.2 0 0 0-.015-.07.2.2 0 0 0 .029-.109" fill="#f86d70"/><path d="M9.605 8.998c.013-.048.084-.071.161-.053a.25.25 0 0 1 .241-.208h.016a.2.2 0 0 0-.069-.01.25.25 0 0 0-.241.208c-.078-.018-.148.005-.161.053s.042.109.124.131a.2.2 0 0 0 .047.008c-.078-.023-.131-.08-.118-.129m.607.526v-.018a.2.2 0 0 1-.056-.078.25.25 0 0 1-.182-.188.24.24 0 0 1-.167-.104.2.2 0 0 1-.047-.001.24.24 0 0 0 .161.096.25.25 0 0 0 .182.188.2.2 0 0 0 .056.078v.018a.16.16 0 0 0 .157.163.16.16 0 0 1-.104-.154" opacity=".1"/><path fill="#fbbebe" d="M-286.245 265.44a.038.029 52.78 0 1 0 .048.038.029 52.78 0 1-.045-.013.038.029 52.78 0 1 .045-.035"/></svg>