<svg xmlns="http://www.w3.org/2000/svg" width="24" height="24" viewBox="0 0 2.484 2.484" style="enable-background:new 0 0 512 512" xml:space="preserve"><path d="m.872 1.948-.371.202a.333.333 0 0 0-.059.042 1.236 1.236 0 0 0 .8.292c.303 0 .58-.108.795-.288a.329.329 0 0 0-.065-.044l-.397-.198a.151.151 0 0 1-.084-.135v-.156a.905.905 0 0 0 .038-.048.913.913 0 0 0 .123-.249.125.125 0 0 0 .088-.119v-.166a.121.121 0 0 0-.042-.092v-.24s.049-.374-.457-.374S.784.749.784.749v.24a.124.124 0 0 0-.042.092v.166c0 .044.023.082.057.105.042.181.15.311.15.311v.152a.152.152 0 0 1-.079.133z" fill="#e7eced" data-original="#e7eced"/><path d="M1.263 0a1.243 1.243 0 0 0-.82 2.192.33.33 0 0 1 .059-.042l.371-.202a.151.151 0 0 0 .079-.133v-.152s-.109-.13-.15-.311a.125.125 0 0 1-.057-.105v-.166c0-.037.016-.069.042-.092v-.24S.736.375 1.242.375s.457.374.457.374v.24a.126.126 0 0 1 .042.092v.166a.126.126 0 0 1-.088.119.913.913 0 0 1-.123.249c-.014.019-.026.036-.038.048v.156c0 .057.032.11.084.135l.397.198a.33.33 0 0 1 .065.044c.268-.223.441-.557.447-.933A1.244 1.244 0 0 0 1.263 0z" fill="#556080" data-original="#556080"/></svg>