<svg xmlns="http://www.w3.org/2000/svg" width="24" height="24" viewBox="0 0 24.014 24.014" xml:space="preserve"><path d="M18.851 7.013A7.5 7.5 0 0 0 4.005 8.491q0 .252.022.525a4.5 4.5 0 0 0 .477 8.974h.525c-.012-.166-.025-.331-.025-.5a6.5 6.5 0 1 1 13.001.001c0 .169-.013.334-.025.5h.525a5.494 5.494 0 0 0 .346-10.978" fill="#bbdefb" data-original="#bbdefb"/><path fill="#3b82f6" data-original="#4caf50" d="M17.005 17.491a5.5 5.5 0 0 1-5.5 5.5 5.5 5.5 0 0 1-5.5-5.5 5.5 5.5 0 0 1 11 0"/><path d="M11.505 20.991a.5.5 0 0 1-.5-.5v-6a.5.5 0 0 1 1 0v6a.5.5 0 0 1-.5.5" fill="#fafafa" data-original="#fafafa"/><path d="M13.505 16.991a.5.5 0 0 1-.354-.146l-1.646-1.647-1.646 1.647a.5.5 0 0 1-.707-.012.5.5 0 0 1 0-.695l2-2a.5.5 0 0 1 .707 0l2 2a.5.5 0 0 1-.001.707.5.5 0 0 1-.353.146" fill="#fafafa" data-original="#fafafa"/></svg>