<svg xmlns="http://www.w3.org/2000/svg" width="512" height="512" viewBox="0 0 682.667 682.667" xml:space="preserve"><defs><clipPath id="a" clipPathUnits="userSpaceOnUse"><path d="M0 512h512V0H0Z" data-original="#000000"/></clipPath></defs><g clip-path="url(#a)" transform="matrix(1.33333 0 0 -1.33333 0 682.667)"><path d="M0 0h39.333m78.895 0h39.333M-118 0h39.333M0 118h39.333m78.895 0h39.333M-118 118h39.333m-137.666 98.667h472.227M-137.439-98H177c43.572 0 78.894 35.322 78.894 78.895v274.877c0 43.572-35.322 78.895-78.894 78.895h-314.439c-43.572 0-78.894-35.323-78.894-78.895V-19.105c0-43.573 35.322-78.895 78.894-78.895m275.333 373.667V374m-236.227-98.333V374" style="stroke-width:40;stroke-linecap:round;stroke-linejoin:round;stroke-miterlimit:10;stroke-dasharray:none;stroke-opacity:1" transform="translate(236.333 118)" fill="none" stroke="#000" stroke-width="40" stroke-linecap="round" stroke-linejoin="round" stroke-miterlimit="10" data-original="#000000"/></g></svg>