<svg xmlns="http://www.w3.org/2000/svg" width="24" height="24" viewBox="0 0 3 3" xml:space="preserve"><path d="M1.172.281H.516a.235.235 0 0 0-.234.234v.656a.235.235 0 0 0 .234.234h.656a.235.235 0 0 0 .234-.234V.516a.235.235 0 0 0-.234-.234m.141.891a.14.14 0 0 1-.141.141H.516a.14.14 0 0 1-.141-.141V.516A.14.14 0 0 1 .516.375h.656a.14.14 0 0 1 .141.141zM2.484.281h-.656a.235.235 0 0 0-.234.234v.656a.235.235 0 0 0 .234.234h.656a.235.235 0 0 0 .234-.234V.516a.235.235 0 0 0-.234-.234m.141.891a.14.14 0 0 1-.141.141h-.656a.14.14 0 0 1-.141-.141V.516a.14.14 0 0 1 .141-.141h.656a.14.14 0 0 1 .141.141zm-1.453.422H.516a.235.235 0 0 0-.234.234v.656a.235.235 0 0 0 .234.234h.656a.235.235 0 0 0 .234-.234v-.657a.235.235 0 0 0-.234-.234m.141.891a.14.14 0 0 1-.141.141H.516a.14.14 0 0 1-.141-.141v-.657a.14.14 0 0 1 .141-.141h.656a.14.14 0 0 1 .141.141zm.844-.891a.563.563 0 1 0 .563.563.563.563 0 0 0-.563-.563m0 1.031a.469.469 0 1 1 .469-.469.47.47 0 0 1-.469.469" data-original="#000000"/></svg>