<svg xmlns="http://www.w3.org/2000/svg" width="24" height="24" viewBox="0 0 22.4 22.4" xml:space="preserve"><path d="m22.165 8.234-5.6-5.6a.8.8 0 0 0-1.131 0 .8.8 0 0 0-.234.565v2.4H9.6a.8.8 0 1 0 0 1.6H16a.8.8 0 0 0 .8-.8V5.131L20.469 8.8 16.8 12.469V11.2a.8.8 0 0 0-.8-.8H7.2V8a.8.8 0 0 0-.8-.8.8.8 0 0 0-.565.234l-5.601 5.6a.8.8 0 0 0 0 1.131l5.6 5.6a.8.8 0 0 0 .566.234.8.8 0 0 0 .306-.061.8.8 0 0 0 .494-.739v-2.4h5.6a.8.8 0 1 0 0-1.6H6.4a.8.8 0 0 0-.8.8v1.269l-3.669-3.669L5.6 9.93v1.269a.8.8 0 0 0 .8.8h8.8v2.4a.8.8 0 0 0 .8.8.8.8 0 0 0 .565-.234l5.6-5.6a.8.8 0 0 0 0-1.131" data-original="#000000"/></svg>