<svg xmlns="http://www.w3.org/2000/svg" width="24" height="24" viewBox="0 0 21.595 21.595" xml:space="preserve"><path d="M14.841 5.71a1.08 1.08 0 0 0-1.527-.012l-7.981 7.888-3.47-3.592a1.083 1.083 0 0 0-1.562 1.498l.006.006 4.23 4.384a1.08 1.08 0 0 0 .768.325h.012a1.08 1.08 0 0 0 .758-.313l8.756-8.657c.423-.42.427-1.102.01-1.527m-3.81 10.173a1.08 1.08 0 0 0 .766.325h.012a1.08 1.08 0 0 0 .758-.313l8.756-8.658a1.082 1.082 0 0 0-1.516-1.539l-7.978 7.888-.285-.295a1.082 1.082 0 0 0-1.562 1.498l.006.006z" data-original="#000000"/></svg>