<svg xmlns="http://www.w3.org/2000/svg" width="24" height="24" viewBox="0 0 24 24" xml:space="preserve"><path fill="#3a0a0e" d="M21.06 5.693a5.4 5.4 0 0 0-6.464-1.676c-.993.428-1.878 1.151-2.596 2.112-.718-.961-1.604-1.683-2.596-2.109A5.4 5.4 0 0 0 2.94 5.693c-.773 1.013-1.182 2.28-1.182 3.662 0 1.989 1.186 4.172 3.526 6.489 1.906 1.888 4.159 3.434 5.332 4.187a2.57 2.57 0 0 0 2.768 0c1.172-.753 3.426-2.299 5.332-4.187 2.34-2.317 3.526-4.5 3.526-6.489 0-1.382-.409-2.649-1.182-3.662" data-original="#3a0a0e"/><path fill="#f9595f" d="M21.07 9.356c0 1.665-1.069 3.568-3.179 5.657-1.828 1.812-4.006 3.305-5.141 4.031a1.39 1.39 0 0 1-1.5 0c-1.134-.728-3.311-2.221-5.141-4.031C4 12.924 2.93 11.021 2.93 9.356c0-1.125.328-2.144.942-2.953a4.26 4.26 0 0 1 2.257-1.521 4.2 4.2 0 0 1 1.098-.145c1.429 0 3.077.714 4.268 2.746a.585.585 0 0 0 1.011 0c1.514-2.581 3.765-3.036 5.366-2.601a4.26 4.26 0 0 1 2.257 1.521c.614.809.94 1.83.94 2.953" data-original="#f9595f"/></svg>