<svg xmlns="http://www.w3.org/2000/svg" width="24" height="24" viewBox="0 0 24 24" xml:space="preserve"><path d="M21.891 3.563H2.109A2.11 2.11 0 0 0 0 5.672v12.656c0 1.166.951 2.109 2.109 2.109H21.89a2.11 2.11 0 0 0 2.109-2.109V5.672a2.11 2.11 0 0 0-2.109-2.109m-.295 1.406-8.103 8.061c-.398.398-.928.618-1.492.618s-1.093-.219-1.493-.619l-8.102-8.06zM1.406 18.042V5.959l6.077 6.045zm1 .989 6.074-6.036 1.034 1.029c.664.664 1.547 1.03 2.486 1.03s1.822-.366 2.485-1.028l1.035-1.03 6.074 6.035zm20.188-.989-6.077-6.038 6.077-6.045z" fill="#fff" data-original="#000000"/></svg>