              <svg xmlns="http://www.w3.org/2000/svg" version="1.1" xmlns:xlink="http://www.w3.org/1999/xlink" width="512" height="512" x="0" y="0" viewBox="0 0 24 24" style="enable-background:new 0 0 512 512" xml:space="preserve" class=""><g><g fill="#020203"><path d="M1 5h22c.6 0 1-.4 1-1s-.4-1-1-1H1c-.6 0-1 .4-1 1s.4 1 1 1zM23 10.5H1c-.6 0-1 .4-1 1s.4 1 1 1h22c.6 0 1-.4 1-1s-.4-1-1-1zM23 18H1c-.6 0-1 .4-1 1s.4 1 1 1h22c.6 0 1-.4 1-1s-.4-1-1-1z" fill="#ffffff" opacity="1" data-original="#020203" class=""></path></g></g></svg>
