<svg xmlns="http://www.w3.org/2000/svg" width="24" height="24" viewBox="0 0 1.5 1.5" xml:space="preserve"><path d="m1.316 1.062-.08-.115a.1.1 0 0 1-.017-.053V.563a.469.469 0 0 0-.938 0v.331a.1.1 0 0 1-.017.053l-.08.115a.094.094 0 0 0 .07.157h.267a.234.234 0 0 0 .459 0h.267a.094.094 0 0 0 .069-.157m-.566.251a.14.14 0 0 1-.132-.094h.264a.14.14 0 0 1-.132.094m-.496-.188.006-.007L.342 1A.2.2 0 0 0 .375.893v-.33a.375.375 0 0 1 .75 0v.331a.2.2 0 0 0 .034.107l.082.118.006.007z" data-name="28" fill="#fff" data-original="#000000"/></svg>