<svg xmlns="http://www.w3.org/2000/svg" width="24" height="24" viewBox="0 0 22.622 22.622" xml:space="preserve"><path d="M4.61 15.038a24 24 0 0 0 7.983 6.253c1.167.553 2.728 1.209 4.467 1.322.108.005.211.009.319.009 1.167 0 2.105-.403 2.869-1.233.005-.005.014-.014.019-.023.272-.328.581-.623.905-.938.22-.211.445-.431.661-.656.998-1.041.998-2.362-.009-3.37l-2.817-2.817c-.478-.497-1.05-.759-1.65-.759s-1.177.262-1.669.755l-1.678 1.678a9 9 0 0 0-.464-.244 6 6 0 0 1-.516-.281c-1.528-.97-2.916-2.236-4.242-3.863-.67-.848-1.12-1.561-1.434-2.287.441-.398.853-.816 1.252-1.223q.213-.218.431-.436c.506-.506.778-1.092.778-1.688s-.267-1.181-.778-1.688L7.64 2.152a36 36 0 0 1-.478-.488A25 25 0 0 0 6.21.722C5.727.249 5.16 0 4.56 0c-.595 0-1.167.248-1.669.727L1.138 2.48A3.6 3.6 0 0 0 .065 4.786c-.089 1.12.117 2.311.652 3.75.82 2.227 2.058 4.294 3.895 6.502M1.209 4.885a2.48 2.48 0 0 1 .745-1.594l1.744-1.744c.272-.262.572-.398.862-.398.286 0 .577.136.844.408.314.291.609.595.928.919l.488.497L8.217 4.37c.291.291.441.586.441.877s-.15.586-.441.877c-.145.145-.291.295-.436.441-.436.441-.844.858-1.294 1.256l-.023.023c-.389.389-.328.759-.234 1.041l.014.038c.361.867.862 1.692 1.645 2.677 1.406 1.734 2.888 3.08 4.519 4.116.202.131.417.234.619.338.188.094.361.183.516.281.019.009.033.019.052.028q.231.118.455.117c.375 0 .619-.239.698-.319l1.753-1.753c.272-.272.567-.417.858-.417.356 0 .647.22.83.417l2.827 2.822c.563.563.558 1.172-.014 1.767-.197.211-.403.413-.623.623-.328.319-.67.647-.98 1.017-.539.581-1.181.853-2.011.853-.08 0-.164-.005-.244-.009-1.537-.098-2.967-.698-4.041-1.209a22.8 22.8 0 0 1-7.598-5.953c-1.748-2.105-2.925-4.064-3.703-6.164-.483-1.289-.666-2.325-.591-3.267" fill="#fff" data-original="#000000"/></svg>