<svg width="919" height="790" viewBox="0 0 919 790" fill="none" xmlns="http://www.w3.org/2000/svg"><path opacity=".2" d="M471.606 427.692v-20.956l-30.263-17.474v-20.956l-30.262-17.492v-20.939L380.836 312.4l-130.763 71.325 33.965 19.513v20.956l30.262 17.457v20.973l30.262 17.458v20.973l132.563 191.576c131.272-22.162 231.483-89.004 273.769-175.392a344.767 344.767 0 0 0 13.059-30.177l-292.347-59.37Z" fill="#92E3A9"/><path opacity=".15" d="M285.21 19.153C196.733 70.099 125 206.636 125 324.186c0 69.848 25.337 117.279 64.532 133.582l16.184-9.341 159.123-91.856 16.591-9.578c38.907-61.221 64.057-137.555 64.057-207.182-.068-117.517-71.783-171.554-160.277-120.658Z" fill="#92E3A9"/><path opacity=".15" d="M285.21 53.15c-74.348 42.796-134.618 157.527-134.618 256.312 0 98.786 60.27 144.196 134.618 101.435 74.347-42.761 134.634-157.544 134.634-256.329S359.574 10.373 285.21 53.151Z" fill="#92E3A9"/><path opacity=".15" d="M285.21 77.113c-64.159 37.055-116.175 136.434-116.175 221.973 0 85.539 52.016 124.887 116.175 87.849 64.158-37.038 116.175-136.435 116.175-221.991 0-85.556-52-124.903-116.175-87.831Z" fill="#92E3A9"/><path d="M216.704 303.145c0-74.11 45.07-160.209 100.653-192.323 24.505-14.129 46.938-15.437 64.379-6.13l-22.603-13.076c-17.662-10.19-40.757-9.34-65.959 5.23-55.616 32.113-100.67 118.213-100.67 192.323 0 40.57 13.501 69.134 34.847 81.429 3.652 2.089 17.22 9.952 22.756 13.144-20.565-12.753-33.403-40.944-33.403-80.597Z" fill="#92E3A9"/><path opacity=".3" d="M216.704 303.145c0-74.11 45.07-160.209 100.653-192.323 24.505-14.129 46.938-15.437 64.379-6.13l-22.603-13.076c-17.662-10.19-40.757-9.34-65.959 5.23-55.616 32.113-100.67 118.213-100.67 192.323 0 40.57 13.501 69.134 34.847 81.429 3.652 2.089 17.22 9.952 22.756 13.144-20.565-12.753-33.403-40.944-33.403-80.597Z" fill="#fff"/><path d="M356.908 126.361c8.78 11.718 13.484 30.364 12.431 54.615-2.53 59.437-38.685 130.151-80.733 157.815-12.771 8.406-24.641 11.887-34.864 10.953 12.77 16.982 34.168 19.411 59.063 3.023 42.065-27.664 78.22-98.327 80.751-157.832 1.732-41.403-13.246-66.485-36.648-68.574Z" fill="#92E3A9"/><path opacity=".15" d="M356.908 126.361c8.78 11.718 13.484 30.364 12.431 54.615-2.53 59.437-38.685 130.151-80.733 157.815-12.771 8.406-24.641 11.887-34.864 10.953 12.77 16.982 34.168 19.411 59.063 3.023 42.065-27.664 78.22-98.327 80.751-157.832 1.732-41.403-13.246-66.485-36.648-68.574Z" fill="#000"/><path d="m242.347 144.566 24.199 13.976 1.936-2.598-24.199-14.01c-.663.9-1.291 1.698-1.936 2.632Zm-11.107 80.937-24.284-13.943c-.34.934-.663 1.902-.985 2.853l24.199 13.977c.34-.985.646-1.953 1.07-2.887ZM341.624 85.451l24.217 14.027c.985.17 1.97.34 2.938.544l-24.217-13.977a29.055 29.055 0 0 0-2.938-.594ZM220.117 266.549c.187-1.053.391-2.123.594-3.176l-24.199-13.976a94.729 94.729 0 0 0-.612 3.175l24.217 13.977Zm46.022-149.155 24.199 13.977c.832-.798 1.698-1.597 2.514-2.361l-24.251-13.976c-.798.764-1.698 1.562-2.462 2.36Zm-45.903 219.019c-.221-.934-.425-1.885-.629-2.836l-.186-.424-24.081-13.909a91.15 91.15 0 0 0 .696 3.21l24.2 13.959ZM320.515 86.08c-1.018.203-2.071.475-3.107.73l24.216 13.976a54.477 54.477 0 0 1 3.142-.713l-24.251-13.994Zm-1.647 23.927-24.199-13.925c-.51.289-1.002.526-1.495.815l-1.477.9 24.199 13.976 1.461-.9 1.511-.866Zm-97.036 67.589 24.2 13.976 1.426-2.649-24.199-13.976c-.51.849-.968 1.732-1.427 2.649Zm8.678 185.479a111.879 111.879 0 0 1-1.579-2.836l-24.183-13.959c.51.968 1.053 1.902 1.596 2.836l24.166 13.959Zm-38.006-73.634 24.2 13.993v-3.448l-24.217-13.976v3.159l.017.272Z" fill="#92E3A9"/><path d="M317.357 110.822c-55.583 32.113-100.654 118.213-100.654 192.323 0 74.11 45.071 108.193 100.654 76.097 55.582-32.096 100.687-118.196 100.687-192.323 0-74.127-45.088-108.193-100.687-76.097Zm76.148 84.113c-2.531 59.437-38.686 130.151-80.75 157.815-42.065 27.664-74.077 1.868-71.546-57.62 2.53-59.489 38.719-130.152 80.75-157.816 42.031-27.664 74.093-1.868 71.546 57.621Z" fill="#92E3A9"/><path d="M296.757 159.68c.815-.9 1.614-1.817 2.446-2.7l-6.369-27.97a81.927 81.927 0 0 0-2.513 2.344l6.436 28.326Zm19.122-47.975v29.991a90.07 90.07 0 0 1 2.972-2.225V109.99l-1.494.832-1.478.883Zm20.464 18.069a53.108 53.108 0 0 1 3.243-1.154l5.095-28.564a73.312 73.312 0 0 0-3.142.696l-5.196 29.022Zm-82.058 103.201 1.07-2.819-24.115-4.67c-.339.951-.679 1.902-1.002 2.853l24.047 4.636Zm11.429-26.509 1.358-2.717-19.631-14.843-1.409 2.666 19.682 14.894Zm148.203-55.141-21.346 20.022c.17 1.189.322 2.394.458 3.651l21.754-20.379c-.322-1.086-.577-2.207-.866-3.294ZM241.939 285.433l-25.201 14.536v3.465l24.895-14.367c.051-1.206.187-2.429.306-3.634Zm4.076-24.624c.254-1.07.526-2.14.781-3.227l-26.102 5.757a221.27 221.27 0 0 0-.594 3.176l25.915-5.706Zm110.384-134.465c1.036.085 2.038.204 3.023.374l9.374-26.781c-.985-.204-1.97-.39-2.972-.56l-9.425 26.967Zm29.617 22.281a66.37 66.37 0 0 1 1.375 3.124l17.492-23.554a35.492 35.492 0 0 0-1.699-2.768l-17.168 23.198Zm-12.364-15.777c.799.612 1.58 1.257 2.344 1.953l13.178-25.235a49.109 49.109 0 0 0-2.428-1.8l-13.094 25.082Zm-93.724 48.892 1.834-2.768-13.297-23.045-1.936 2.615 13.399 23.198Zm58.555 148.067c-.799.934-1.699 1.834-2.429 2.717l6.368 28.055c.849-.764 1.699-1.597 2.514-2.395l-6.453-28.377Zm31.569-48.246c-.441.917-.9 1.817-1.358 2.717l19.682 14.876 1.376-2.7-19.7-14.893ZM355.685 307l-1.834 2.785 13.331 23.096c.646-.866 1.308-1.698 1.936-2.598L355.685 307Zm25.711-52.594c-.339.951-.662 1.902-1.019 2.836l24.115 4.654c.34-.951.662-1.902.985-2.853l-24.081-4.637Zm7.965-28.173c-.221 1.07-.441 2.14-.696 3.193l25.982-5.689c.187-1.07.357-2.123.544-3.176l-25.83 5.672Zm28.683-42.438-24.726 14.18c0 1.188-.153 2.377-.238 3.583l24.964-14.35v-3.413Zm-99.193 194.547v-29.956c-.985.764-1.987 1.511-2.972 2.224v29.481l1.478-.849c.492-.289 1.002-.611 1.494-.9ZM247.9 339.674a63.642 63.642 0 0 1-1.325-3.227l-17.644 23.775a64.61 64.61 0 0 0 1.596 2.836l17.373-23.384Zm12.108 16.727a36.732 36.732 0 0 1-2.293-2.055l-13.246 25.338c.782.645 1.58 1.256 2.395 1.851l13.144-25.134Zm37.802 4.144a66.953 66.953 0 0 1-3.226 1.104l-5.095 28.479a71.2 71.2 0 0 0 3.159-.679l5.162-28.904Zm-20.463 3.107a33.81 33.81 0 0 1-2.989-.441l-9.272 26.662c.985.238 1.97.424 2.955.594l9.306-26.815Zm-35.459-47.465a122.186 122.186 0 0 1-.357-3.753l-22.077 20.6c.238 1.137.476 2.258.731 3.396l21.703-20.243Z" opacity=".15" fill="#000"/><path d="m344.528 501.072-115.037-66.417V371.77l24.217 13.976 30.296 17.509v20.956l30.262 17.457v20.973l30.262 17.458v20.973Z" fill="#263238"/><path d="m253.742 385.78 127.094-73.38 30.245 17.475-127.077 73.38-30.262-17.475Z" fill="#455A64"/><path d="M284.004 403.255v20.956l127.077-73.38v-20.956l-127.077 73.38Z" fill="#37474F"/><path d="m284.004 424.211 127.077-73.38 30.262 17.475-127.077 73.362-30.262-17.457Z" fill="#455A64"/><path d="M314.266 441.669v20.973l127.077-73.38v-20.956l-127.077 73.363Z" fill="#37474F"/><path d="m314.266 462.642 127.077-73.38 30.263 17.474-127.078 73.363-30.262-17.457Z" fill="#455A64"/><path d="M344.528 480.099v20.973l127.078-73.38v-20.956l-127.078 73.363Z" fill="#37474F"/><path d="M380.921 187.785c-2.53 59.438-38.702 130.151-80.75 157.832-15.624 10.275-29.855 13.179-41.471 9.697-11.887-10.851-18.68-31.638-17.491-60.151 2.547-59.437 38.719-130.151 80.75-157.815 15.641-10.291 29.906-13.178 41.504-9.679 11.956 10.868 18.681 31.586 17.458 60.116Z" fill="#92E3A9"/><path opacity=".9" d="M380.921 187.785c-2.53 59.438-38.702 130.151-80.75 157.832-15.624 10.275-29.855 13.179-41.471 9.697-11.887-10.851-18.68-31.638-17.491-60.151 2.547-59.437 38.719-130.151 80.75-157.815 15.641-10.291 29.906-13.178 41.504-9.679 11.956 10.868 18.681 31.586 17.458 60.116Z" fill="#fff"/><path opacity=".1" d="M299.984 315.151a55.232 55.232 0 0 0-34.236 17.407 64.35 64.35 0 0 0-11.684 17.645 40.474 40.474 0 0 0 4.636 5.094 34.428 34.428 0 0 0 7.676 1.325c.68-1.698 1.189-3.481 1.783-5.197a43.141 43.141 0 0 1 38.618-28.207c5.825-.153 11.599.9 17.39 1.359 2.292-2.531 4.534-5.095 6.792-7.88-10.257-.527-20.837-2.564-30.975-1.546Zm-2.513-86.965c11.887 1.545 24.862 2.208 35.255-3.872 11.768-6.895 17.355-20.565 23.027-32.945 5.282-11.497 12.499-23.64 24.03-28.089-2.394-16.082-8.134-28.19-16.337-35.662a36.55 36.55 0 0 0-17.203-.731 58.097 58.097 0 0 0-12.261 22.824c-2.717 9.51-3.668 19.615-8.032 28.462a40.762 40.762 0 0 1-21.211 19.581c-7.268 2.887-15.165 3.583-22.892 4.772a117.87 117.87 0 0 0-15.946 3.498 246.974 246.974 0 0 0-10.767 24.641 42.44 42.44 0 0 1 6.487-2.666c11.531-3.549 23.962-1.342 35.85.187Zm12.159-59.438c3.804-6.572 5.095-14.231 7.183-21.55.748-2.734 1.699-5.4 2.582-8.066a117.157 117.157 0 0 0-8.084 6.249c-3.838 9.323-7.574 18.68-14.655 25.711a36.23 36.23 0 0 1-12.652 8.049c-.894.3-1.816.51-2.751.629a243.2 243.2 0 0 0-5.095 7.812 64.878 64.878 0 0 0 11.344-1.936 39.399 39.399 0 0 0 22.145-16.949l-.017.051Zm71.325 10.309a33.358 33.358 0 0 0-8.899 6.707c-6.317 6.929-9.714 15.913-13.585 24.472-5.401 12.193-12.448 24.607-24.183 30.924-7.812 4.195-16.982 5.248-25.762 5.486-16.727.458-33.71-1.699-50.063 1.885a57.937 57.937 0 0 0-10.292 3.277 195.257 195.257 0 0 0-2.971 12.142 55.74 55.74 0 0 1 12.006-4.67c24.166-6.113 50.946 7.303 74.093-1.698 16.982-6.64 27.324-23.503 35.663-39.704 3.396-6.606 7.047-13.586 12.906-17.967.453-4.042.77-8.05.951-12.024.221-3.141.255-6.045.204-8.881l-.068.051Zm-60.287 98.988c-13.076.476-26.135-.747-39.211-.934a64.273 64.273 0 0 0-19.904 2.038 57.13 57.13 0 0 0-15.827 8.305 117.77 117.77 0 0 0-4.313 3.243c-.102 1.512-.204 3.006-.272 4.483-.73 17.237 1.46 31.621 5.927 42.728a46.547 46.547 0 0 0 7.642-8.492c8.983-12.142 17.644-25.575 31.264-32.079 14.621-6.979 31.858-4.483 47.754-7.676a66.234 66.234 0 0 0 19.784-7.489c2.513-4.71 4.885-9.51 7.115-14.401-.679.408-1.375.798-2.072 1.189-11.496 6.3-24.76 8.559-37.819 9.035l-.068.05Z" fill="#92E3A9"/><path d="M459.033 161.895c0 5.774-1.087 10.903-8.152 12.142 7.234.306 7.744 5.095 8.152 11.786.237-6.64.866-11.48 7.421-11.786-6.759-1.121-7.421-6.368-7.421-12.142ZM294.204 469.289c0 5.774-1.087 10.902-8.152 12.142 7.235.306 7.744 5.095 8.152 11.786.237-6.657.866-11.48 7.421-11.786-6.793-1.138-7.421-6.368-7.421-12.142ZM241.1 291.384c0 2.53-.475 4.755-3.566 5.298 3.159.136 3.397 2.259 3.566 5.095.102-2.904.374-5.095 3.244-5.095-2.972-.492-3.244-2.768-3.244-5.298Z" fill="#92E3A9"/><path d="M227.209 301.318c0 5.757-1.104 10.886-8.151 12.126 7.234.305 7.744 5.094 8.151 11.802.221-6.657.849-11.48 7.421-11.802-6.792-1.036-7.421-6.369-7.421-12.126Zm-6.623-28.937c0 2.972-.56 5.587-4.177 6.232 3.702.153 3.973 2.633 4.177 6.046.119-3.396.442-5.893 3.821-6.046-3.498-.577-3.821-3.26-3.821-6.232Zm218.832-127.842c0 3.397-.085 6.623-4.959 7.388 5.095 0 4.755 3.175 5.01 7.251.136-4.076.492-6.997 4.517-7.184-4.16-.696-4.042-2.615-4.568-7.455Zm42.354 157.17c-.357 6.368-.866 9.119-6.623 9.884 5.858.322 6.351 4.211 6.691 9.628.186-5.417.662-9.357 6.011-9.628-5.502-.883-5.638-3.431-6.079-9.884ZM270.802 469.34c-.203 3.719-.492 5.315-3.855 5.774 3.397.187 3.703 2.428 3.906 5.587.102-3.159.374-5.451 3.499-5.587-3.159-.544-3.295-2.004-3.55-5.774Zm198.946-313.355c0 2.055 0 4.025-3.006 4.484 3.125 0 2.887 1.919 3.04 4.381.085-2.462.289-4.229 2.717-4.348-2.513-.424-2.445-1.579-2.751-4.517Zm6.402 164.235c0 2.037 0 4.007-3.005 4.466 3.107 0 2.87 1.936 3.022 4.398.085-2.462.306-4.245 2.735-4.347-2.514-.442-2.446-1.596-2.752-4.517ZM286.477 461.239c0 2.038 0 4.008-3.006 4.467 3.125 0 2.887 1.919 3.04 4.381.085-2.462.305-4.228 2.734-4.347-2.48-.408-2.412-1.58-2.768-4.501Z" fill="#E0E0E0"/><path d="m713.615 416.532 53.477-30.874 80.733 46.599 38.736-22.365-80.716-46.599 26.221-15.148-42.456-24.54-26.22 15.148-46.803-26.984-38.753 22.382 46.752 27.053-99.702 57.467 31.196 18.002 251.641 67.554 4.891-2.819a340.766 340.766 0 0 0 5.961-29.531l-204.958-55.345Z" fill="#263238"/><path d="m718.642 179.648-2.004 1.155v-65.246l-24.217-13.976-29.956 17.288 24.709-92.893L662.974 12l-41.657 24.047L554 287.756v36.087l24.2 13.976 75.553-43.644v26l24.217 13.976 38.617-22.382v-53.935l26.204-15.132v-49.078l-24.149-13.976Zm-64.889 37.513-20.497 11.888 20.497-77.133v65.245Z" fill="#92E3A9"/><path opacity=".3" d="m718.642 179.648-2.004 1.155v-65.246l-24.217-13.976-29.956 17.288 24.709-92.893L662.974 12l-41.657 24.047L554 287.756v36.087l24.2 13.976 75.553-43.644v26l24.217 13.976 38.617-22.382v-53.935l26.204-15.132v-49.078l-24.149-13.976Zm-64.889 37.513-20.497 11.888 20.497-77.133v65.245Z" fill="#000"/><path d="M716.621 208.755v-93.198l-38.736 22.366v93.215l-53.494 30.873 62.783-236.035-41.657 24.047L578.2 301.732v36.02l99.685-57.536v53.935l38.736-22.382v-53.935l26.22-15.132v-49.078l-26.22 15.131Z" fill="#92E3A9"/><path opacity=".3" d="M716.621 208.755v-93.198l-38.736 22.366v93.215l-53.494 30.873 62.783-236.035-41.657 24.047L578.2 301.732v36.02l99.685-57.536v53.935l38.736-22.382v-53.935l26.22-15.132v-49.078l-26.22 15.131Z" fill="#fff"/><path d="M687.174 25.976 662.974 12l-41.657 24.047 24.2 13.976 41.657-24.047Z" fill="#92E3A9"/><path opacity=".5" d="M687.174 25.976 662.974 12l-41.657 24.047 24.2 13.976 41.657-24.047Z" fill="#fff"/><path d="m692.422 101.581 24.199 13.976-38.736 22.366-17.763-10.258 2.343-8.796 29.957-17.288Z" fill="#92E3A9"/><path opacity=".5" d="m692.422 101.581 24.199 13.976-38.736 22.366-17.763-10.258 2.343-8.796 29.957-17.288Z" fill="#fff"/><path d="m677.885 231.138-24.217-13.977-20.497 11.837-8.78 33.013 53.494-30.873Z" fill="#92E3A9"/><path opacity=".5" d="m677.885 231.138-24.217-13.977-20.497 11.837-8.78 33.013 53.494-30.873Z" fill="#fff"/><path d="m742.842 193.624-24.2-13.976-2.021 1.155v27.952l26.221-15.131Z" fill="#92E3A9"/><path opacity=".5" d="m716.621 208.755 26.221-15.131-24.2-13.976-2.021 1.155v27.952Z" fill="#fff"/><path d="M578.2 301.732 554 287.756l67.317-251.71 24.2 13.977L578.2 301.732Z" fill="#92E3A9"/><path opacity=".15" d="M578.2 301.732 554 287.756l67.317-251.71 24.2 13.977L578.2 301.732Z" fill="#000"/><path d="m278.066 633.162-42.507-24.54-26.203 15.131-46.718-26.967-38.753 22.365 46.718 26.968-99.686 57.552 31.197 18.018 251.658 67.555 41.657-24.046-235.814-63.649 53.494-30.891 80.716 46.616 38.753-22.382-80.733-46.599 26.221-15.131Z" fill="#263238"/><path d="m164.642 464.648-2.004 1.171v-65.313l-24.217-13.976-29.956 17.372 24.709-92.892-24.2-13.976-41.657 24.013L0 572.773v36.019l24.267 13.976 75.486-43.576v25.983l24.2 13.976 38.753-22.365v-53.953l26.203-15.131v-49.078l-24.267-13.976Zm-64.957 37.513-20.497 11.888 20.497-77.065v65.177Z" fill="#92E3A9"/><path opacity=".3" d="m164.642 464.648-2.004 1.171v-65.313l-24.217-13.976-29.956 17.372 24.709-92.892-24.2-13.976-41.657 24.013L0 572.773v36.019l24.267 13.976 75.486-43.576v25.983l24.2 13.976 38.753-22.365v-53.953l26.203-15.131v-49.078l-24.267-13.976Zm-64.957 37.513-20.497 11.888 20.497-77.065v65.177Z" fill="#000"/><path d="M162.638 493.772v-93.215l-38.753 22.366v93.215l-53.494 30.873 62.8-236.035-41.657 24.047-67.335 251.709v36.036l99.686-57.552v53.935l38.753-22.365v-53.953l26.203-15.131v-49.078l-26.203 15.148Z" fill="#92E3A9"/><path opacity=".3" d="M162.638 493.772v-93.215l-38.753 22.366v93.215l-53.494 30.873 62.8-236.035-41.657 24.047-67.335 251.709v36.036l99.686-57.552v53.935l38.753-22.365v-53.953l26.203-15.131v-49.078l-26.203 15.148Z" fill="#fff"/><path d="M133.191 310.976 108.974 297l-41.657 24.047 24.217 13.976 41.657-24.047Z" fill="#92E3A9"/><path opacity=".5" d="M133.191 310.976 108.974 297l-41.657 24.047 24.217 13.976 41.657-24.047Z" fill="#fff"/><path d="m138.422 386.581 24.216 13.976-38.753 22.366-17.764-10.241 2.344-8.796 29.957-17.305Z" fill="#92E3A9"/><path opacity=".5" d="m138.422 386.581 24.216 13.976-38.753 22.366-17.764-10.241 2.344-8.796 29.957-17.305Z" fill="#fff"/><path d="m123.885 516.138-24.2-13.977-20.497 11.837-8.797 33.013 53.494-30.873Z" fill="#92E3A9"/><path opacity=".5" d="m123.885 516.138-24.2-13.977-20.497 11.837-8.797 33.013 53.494-30.873Z" fill="#fff"/><path d="m188.842 478.624-24.2-13.976-2.004 1.171v27.953l26.204-15.148Z" fill="#92E3A9"/><path opacity=".5" d="m162.638 493.772 26.204-15.148-24.2-13.976-2.004 1.171v27.953Z" fill="#fff"/><path d="M24.2 586.732 0 572.773l67.317-251.726 24.217 13.976-67.335 251.709Z" fill="#92E3A9"/><path opacity=".15" d="M24.2 586.732 0 572.773l67.317-251.726 24.217 13.976-67.335 251.709Z" fill="#000"/><path d="M573.068 595.364a81.099 81.099 0 0 0-21.296-6.368 39.46 39.46 0 0 0-13.586.119 36.94 36.94 0 0 0-9.204 3.193c-9.985 4.958-11.429 10.478-11.752 15.148-.322 4.67 2.259 10.919 10.512 16.693l141.648 99.227a349.962 349.962 0 0 0 71.325-50.335c-61.543-28.598-161.975-75.248-167.647-77.677Z" fill="#263238"/><path d="M618.393 386.535c8.695 1.698 12.091 2.293 16.252 9.493s11.225 33.964 13.161 39.518c1.936 5.553 2.513 7.574 1.698 13.755-.832 6.453-4.636 17.916-6.232 24.2-.747 2.904-1.24 5.74-1.783 8.711a66.772 66.772 0 0 1-2.887 8.933 8.349 8.349 0 0 1-2.531 3.634c-.713.629-1.698.697-2.377 1.274-.679.577-.866 1.596-1.817 2.072-.951.475-2.276.203-3.21.747a30.796 30.796 0 0 1-2.87 1.868 5.83 5.83 0 0 0-2.428 1.41c-.612.662-1.189 2.156-2.293 2.037-1.104-.119-1.426-1.307-1.477-2.326a9.35 9.35 0 0 1 1.936-5.519 53.294 53.294 0 0 1 3.549-5.095 13.125 13.125 0 0 0 2.615-5.18c.391-1.273.272-2.887-1.375-2.156-1.919.883-3.957 2.717-6.267 2.309-1.596-.271-1.698-1.528-.764-2.581a47.879 47.879 0 0 0 4.212-5.519c1.29-1.987 2.36-4.076 3.702-6.012a28.946 28.946 0 0 1 2.36-2.87c2.344-2.547 2.242-6.029 2.514-9.272.373-4.5.696-16.048.696-16.048l-10.529-25.932-3.855-31.451Z" fill="#FFBDA7"/><path d="M632.098 459.966c.101-5.35.322-10.699.526-16.048a1375.913 1375.913 0 0 1-10.359-25.932 1201.806 1201.806 0 0 1 10.699 25.898c-.272 5.366-.51 10.732-.866 16.082Z" fill="#fff"/><path d="M559.686 587.926c2.989-1.053 5.213-1.155 5.179.323a21.013 21.013 0 0 1-1.919 5.23l-2.377 3.278-1.138 3.227s-1.393 1.698-1.477 1.868c-.085.169-.544-6.029-.544-6.029s-1.681-7.133 2.276-7.897Z" fill="#263238"/><path d="M591.782 461.851s-6.793 8.066-10.818 23.18a350.397 350.397 0 0 0-8.491 42.71c-.968 6.437-2.53 14.554-4.84 27.172-1.783 9.714-7.387 39.5-7.387 39.5s3.227 5.367 7.133 6.997c5.604 2.344 11.004 1.274 11.717-3.736 0 0 3.702-5.91 9.323-21.16 2.703-7.001 4.86-14.2 6.454-21.533.556-4.603.721-9.244.492-13.875l22.553-39.211a63.688 63.688 0 0 1 8.898-11.888 22.591 22.591 0 0 0 4.874-7.54c3.736-10.189-1.698-23.894-1.698-23.894l-38.21 3.278Z" fill="#263238"/><path d="M572.558 527.725c-3.634 22.331-7.795 44.578-12.227 66.756 3.906-22.28 8.084-44.51 12.227-66.756Z" fill="#fff"/><path d="m563.761 611.65-1.205-.237c.085-.459 9.119-46.956 15.436-66.486 6.318-19.529 22.875-58.316 23.045-58.707l1.138.493c-.17.373-16.693 39.143-22.994 58.605-6.3 19.462-15.318 65.874-15.42 66.332Z" fill="#000"/><path d="M621.467 474.91h-37.038a80.1 80.1 0 0 0-3.397 10.104 331.215 331.215 0 0 0-7.897 39.314c.901 6.063 1.92 12.295 2.854 16.575 2.496 11.31 4.058 19.291 6.028 23.962a74.895 74.895 0 0 0 6.708 11.276 143.537 143.537 0 0 0 6.301-21.092 82.05 82.05 0 0 0 .492-13.875l22.077-38.294 1.579-6.029c5.485-9.119 4.857-15.963 2.293-21.941Z" fill="#000"/><path d="M529.322 602.989c-.663-.305-1.478 2.293-1.546 3.227-.068.934 1.699 4.738 6.335 7.54 4.636 2.802 12.6 4.365 15.589 5.299 2.989.934 5.384 3.396 9.323 5.315 3.499 1.698 8.78 2.598 11.09 1.562a3.58 3.58 0 0 0 1.698-2.479c.628-1.919.577-2.361.34-2.428l-42.829-18.036Z" fill="#37474F"/><path d="M573.798 616.779a16.797 16.797 0 0 1-1.919 5.587 6.353 6.353 0 0 1-4.772 1.206 20.382 20.382 0 0 1-10.036-3.498 31.698 31.698 0 0 0-7.303-3.516 78.237 78.237 0 0 1-10.41-3.294 27.344 27.344 0 0 1-6.98-4.28c-1.698-1.596-3.277-3.396-3.107-5.638a7.077 7.077 0 0 1 6.283-5.213c2.79-.142 5.579.28 8.203 1.239a35.423 35.423 0 0 0 7.862 1.699c1.834.152 3.991 1.698 5.418.084 1.698-1.868 2.36-6.283 3.498-8.491.187-.356.441-.747.832-.832.391-.085 1.036.391 1.393.866a16.859 16.859 0 0 0 6.215 4.823c6.555 3.244 9.595 1.529 9.595 1.529l.611-1.359s1.308.73-.356 3.787a49.506 49.506 0 0 0-3.533 7.863 28.622 28.622 0 0 0-1.494 7.438Z" fill="#455A64"/><path d="M529.322 603.346c2.054-7.608 10.681-5.57 16.252-3.651a28.09 28.09 0 0 0 6.096 1.409 23.884 23.884 0 0 1-6.181-1.103c-5.503-1.699-13.773-3.872-16.167 3.396v-.051Z" fill="#fff"/><path d="M544.979 599.712c-2.802.255-3.566 4.789-3.566 4.789a23.77 23.77 0 0 0 8.066 2.615 7.999 7.999 0 0 0 9.086-5.791c1.189-3.787.102-9.085-.119-10.8a2.324 2.324 0 0 1 1.698-2.752 3.519 3.519 0 0 0-3.142 4.076c.085 2.038 0 6.063-.866 7.404-.866 1.342-5.196 1.936-11.157.459Z" fill="#455A64"/><path d="M615.183 461.851a28.86 28.86 0 0 1 6.793 17.152 25.675 25.675 0 0 1-5.417 16.982c-1.41 20.65-5.485 60.405-5.485 60.405 5.451 5.605 6.793 9.239 10.019 19.292 1.919 6.114 9.12 25.762 10.903 31.23-9.544 1.172-14.741 10.665-14.741 10.665s-16.812-24.828-24.896-39.432c-5.994-10.801-8.762-14.741-10.545-21.126-2.208-7.965-2.803-12.074-4.772-25.473-1.97-13.399-3.855-30.449-4.823-43.662-.968-13.212-1.699-27.171-1.699-27.171l44.663 1.138Z" fill="#263238"/><path d="M617.323 617.526c-9.799-14.435-19.41-29.039-27.834-44.323a91.238 91.238 0 0 1-7.115-14.011 107.221 107.221 0 0 1-3.6-15.283 728.541 728.541 0 0 1-8.22-83.315l1.427 20.888c1.29 20.905 3.889 41.708 7.217 62.359 1.206 6.792 2.463 13.806 5.553 20.055a599.547 599.547 0 0 0 32.572 53.664v-.034Z" fill="#fff"/><path d="M593.565 562.827c-4.942-12.601-10.868-81.192-10.563-104.899h-1.239c-.102 7.931.492 20.854 1.511 35.034-4.025-2.038-6.623-5.774-6.623-24.556h-1.24c0 18.884 2.463 23.452 7.965 25.983 2.072 28.088 5.774 60.575 9.034 68.913 4.84 12.329 30.093 53.986 30.33 54.343l1.07-.645c-.254-.374-25.439-41.929-30.245-54.173Z" fill="#000"/><path d="M615.93 615.42c-1.511 2.14-3.226 3.652 1.07 6.505 3.397 2.19 3.516 3.956 4.552 6.3.674 2.285.95 4.669.815 7.048 0 0 5.706-8.61 4.042-14.164-1.665-5.553-10.479-5.689-10.479-5.689Z" fill="#455A64"/><path d="M634.22 610.496a20.114 20.114 0 0 0 5.587 4.143c1.444.9 2.938 1.698 3.397 3.397 0 .186-.849 1.205-.832 1.392.073.81.045 1.626-.085 2.429-.323 2.802-1.851 4.874-2.191 7.659a21.28 21.28 0 0 1-.594 3.294 19.423 19.423 0 0 0-.323 3.991c-.085 1.392-.187 2.785-.255 4.178a7 7 0 0 0 0 1.783c.119.594-9.357 5.366-13.178 7.2a6.711 6.711 0 0 1-.696.289 9.892 9.892 0 0 1-6.98-.679c-7.608-2.769-7.132-5.52-7.132-5.52a6.05 6.05 0 0 1 3.617-5.332c.463-.27.952-.492 1.46-.662a9.8 9.8 0 0 1 5.91-.289 9.93 9.93 0 0 0 .527-3.515c.155-1.785.184-3.578.085-5.367a13.803 13.803 0 0 0-2.293-5.621c-1.613-2.225-3.396-5.094-4.466-6.657-1.07-1.562-1.359-5.332 4.975-9.866 6.08-4.331 10.529-3.397 11.395-1.614a25.118 25.118 0 0 0 2.072 5.367Z" fill="#455A64"/><path d="M610.836 644.069c0-5.247 6.691-7.879 11.055-6.334-4.466-.832-10.41 1.24-11.055 6.334Z" fill="#fff"/><path opacity=".1" d="M617.867 640.486a5.756 5.756 0 0 1 2.7-3.006c.447.052.89.137 1.324.255-.764.73-3.498 1.817-4.024 2.751Z" fill="#000"/><path d="M644.087 619.683c1.698.713.289 3.396-1.698 7.557a15.976 15.976 0 0 0-2.038 10.189c.407 3.685-.459 5.486-2.055 6.793-1.596 1.308-13.45 6.487-13.45 6.487a21.727 21.727 0 0 0 4.67-12.448c.646-8.117 1.427-13.331 5.469-16.88a9.72 9.72 0 0 1 9.102-1.698Z" fill="#000"/><path d="M610.836 644.052c.187 1.597 4.721 4.823 10.07 4.755 5.35-.068 5.808-1.205 6.64-7.472.832-6.266 1.41-14.978 4.127-18.68 2.717-3.702 6.283-5.944 11.497-4.585.594.288 2.208 1.902 1.613 3.396 0 0 0-1.189-2.14-1.817-1.834-.526-4.024-.476-7.081 2.174-3.583 3.073-4.382 10.325-4.789 16.54-.408 6.216-2.344 12.176-7.489 12.737a15.402 15.402 0 0 1-12.397-3.838 5.737 5.737 0 0 1-.051-3.21Z" fill="#37474F"/><path d="M580.166 347.544a6.894 6.894 0 0 1-.679-6.793c.866-2.208 2.666-4.534 7.914-7.251 6.249-3.227 23.401-5.536 31.892 5.689 1.223 1.698-15.657 33.37-14.825 39.942-4.382-4.602-18.833-20.786-18.833-20.786-3.397-1.461-5.503-2.701-6.233-5.927a8.014 8.014 0 0 1 .764-4.874Z" fill="#263238"/><path d="M585.634 358.26c-5.094-1.342-8.338-5.808-5.468-10.767-2.174 5.095.73 8.797 5.468 10.767Z" fill="#fff"/><path d="M580.166 347.544c-2.14-2.344-1.613-6.114 0-8.627a16.984 16.984 0 0 1 7.235-5.451 37.968 37.968 0 0 0-3.77 2.479c-3.55 2.463-6.199 7.642-3.397 11.599h-.068Z" fill="#fff"/><path d="M582.747 356.562s-4.636 7.557-4.109 8.185a24.074 24.074 0 0 0 3.396 2.259l.713-10.444Z" fill="#F0997A"/><path d="M582.747 356.562c-1.154 2.428-2.547 4.721-3.685 7.132-.152.391-.475.849-.254 1.121.291.336.635.623 1.019.849-.459-.255-1.223-.459-1.325-1.07a26.115 26.115 0 0 1 4.245-8.032Z" fill="#fff"/><path d="M588.487 342.738c-3.107 1.478-5.791 3.855-6.792 10.665-.255 1.783 1.137 4.211.509 6.572-2.7 10.189.509 18.68 2.479 20.463 1.325 1.257 8.288 1.818 11.888.799 4.568-1.274 14.503-5.757 19.241-12.907 5.57-8.491 6.793-19.699.662-24.233-8.644-6.386-24.675-2.921-27.987-1.359Z" fill="#FFBDA7"/><path d="M581.729 353.403c0 2.309 1.358 4.568.577 6.929-1.444 6.572-1.545 14.383 2.411 20.106-4.347-5.536-4.347-13.585-2.683-20.174.781-2.242-.509-4.535-.305-6.793v-.068Z" fill="#fff"/><path d="m612.245 373.136 1.8 12.516c2.803.594 3.057 3.906 1.699 6.402l.662 3.533-19.156 3.43-2.14-17.509 17.135-8.372Z" fill="#FFBDA7"/><path d="M585.091 380.693c1.698.9 5.18 1.562 10.037.883l-.289-2.479a30.946 30.946 0 0 1-4.738 1.358 16.98 16.98 0 0 1-5.01.238Z" fill="#F0997A"/><path d="M583.902 346.372a6.37 6.37 0 0 0 4.568 6.674 9.555 9.555 0 0 0-.815 5.214 5.523 5.523 0 0 0 3.499 4.806c1.341.458 1.698-.136 2.224-1.206.68-1.511 1.546-3.821 4.789-3.396 3.719.509 4.704 6.113 2.531 9.781a5.418 5.418 0 0 1-4.195 2.819 3.39 3.39 0 0 1-2.53-1.188s.237 4.89 6.538 7.794a18.532 18.532 0 0 0 12.855 1.699 128.255 128.255 0 0 0 8.27-10.19c6.793-9.917 8.237-28.071-3.396-31.332-.56-.153-11.14-1.698-16.303-.509-15.912 3.396-18.001 8.27-18.035 9.034Z" fill="#263238"/><path d="M612.619 336.574a6.788 6.788 0 0 0-2.7 4.228 4.906 4.906 0 0 0 1.698 4.602c3.397 2.666 8.695-.441 9.323-4.381.714-4.653-4.891-6.997-8.321-4.449Z" fill="#92E3A9"/><path d="M615.387 338.051c-3.481 2.14-5.655 7.183-3.804 10.818.51.985 1.223 1.868 1.698 2.904 1.342 3.311-.611 6.962-1.035 10.512a15.486 15.486 0 0 0 1.409 8.219c1.155 1.885 3.702 2.36 4.721 4.33.696 1.359.221 3.023.493 4.535.594 3.243 4.432 4.806 7.743 4.873a9.596 9.596 0 0 0 7.642-2.785 36.144 36.144 0 0 1 2.48-3.396c1.97-1.851 5.094-1.698 7.268-3.396a6.982 6.982 0 0 0 2.344-5.723 18.435 18.435 0 0 0-1.699-6.182c-1.409-3.396-.288-5.587.425-9.034a8.342 8.342 0 0 0-4.959-9.154c-2.394-.951-5.315-.798-7.251-2.513a41.3 41.3 0 0 1-2.581-3.397c-3.635-3.99-10.801-3.107-14.894-.611Z" fill="#263238"/><path d="M629.058 395.892a15.134 15.134 0 0 0-9.086-9.017c-1.698-.51-5.926-1.223-5.926-1.223.968 2.208-.663 3.668-3.533 4.33-3.685.866-9.306.951-13.127-1.579l-1.562-.968a127.16 127.16 0 0 0-12.329 3.702c-.832.391-5.435 1.936-12.669 18.188-3.091 6.946-2.174 13.993 3.515 19.003.323 4.398-2.513 14.299-2.513 14.299a94.153 94.153 0 0 0-.985 25.032s3.396 9 30.33 8.898c20.837 0 31.315-10.189 31.315-10.189-.255-5.095-8.27-22.977-7.472-28.988 1.24-8.763 9.272-24.472 4.042-41.488Z" fill="#92E3A9"/><path d="M583.495 391.137c5.485 4.466 5.909 10.597 5.094 18.867-.815 8.271-9.119 34.117-10.817 39.738-1.698 5.622-4.127 7.575-8.406 12.126-4.28 4.551-14.282 11.785-19.258 15.929-2.31 1.919-4.365 3.923-6.555 6.012a67.737 67.737 0 0 1-7.574 5.536 8.498 8.498 0 0 1-4.178 1.46c-.951 0-1.783-.441-2.683-.373-.9.068-1.698.781-2.683.611-.985-.17-1.97-1.172-3.04-1.291a28.984 28.984 0 0 1-3.397-.152 5.639 5.639 0 0 0-2.802-.289c-.883.17-2.224 1.036-3.056.306-.833-.731-.374-1.902.169-2.769a9.403 9.403 0 0 1 4.823-3.396 51.823 51.823 0 0 1 5.859-2.021 13.176 13.176 0 0 0 5.095-2.666c1.053-.798 1.902-2.191.153-2.547-2.072-.425-4.806-.136-6.454-1.817-1.12-1.155-.458-2.225.918-2.531a45.807 45.807 0 0 0 6.64-2.004c2.207-.849 4.296-1.919 6.521-2.7a31.315 31.315 0 0 1 3.617-.934c3.396-.696 5.349-3.566 7.455-6.029 2.955-3.396 8.033-9.883 11.48-14.536l5.213-25.219c3.295-13.687 4.45-25.167 17.866-29.311Z" fill="#FFBDA7"/><path d="M588.555 410.004a170.947 170.947 0 0 1-5.451 22.077c-.17.595-.357 1.172-.526 1.698-2.089 7.082-4.11 13.467-4.857 15.947-1.529 5.094-3.685 7.2-7.269 10.936l-1.138 1.189c-4.466 4.738-14.281 11.786-19.257 15.946-2.293 1.919-4.365 3.906-6.538 5.995a67.954 67.954 0 0 1-7.591 5.553 8.488 8.488 0 0 1-4.178 1.444c-.951.084-1.783-.442-2.683-.374-.9.068-1.698.781-2.683.611-.985-.17-1.97-1.172-3.04-1.273a28.979 28.979 0 0 1-3.397-.17 5.83 5.83 0 0 0-2.802-.289c-.271 0-.594.187-.934.306l-.424.136a2.335 2.335 0 0 1-.595.135 1.293 1.293 0 0 1-1.086-.271c-.934-.815-.391-1.885.152-2.751a9.38 9.38 0 0 1 4.823-3.397 52.046 52.046 0 0 1 5.859-2.038 13.176 13.176 0 0 0 5.095-2.666c1.053-.798 1.902-2.174.153-2.547-2.072-.425-4.806-.136-6.437-1.8-1.137-1.172-.475-2.242.9-2.548a45.167 45.167 0 0 0 6.64-2.004c2.208-.849 4.314-1.918 6.522-2.683a27.12 27.12 0 0 1 3.617-.934c3.396-.696 5.349-3.583 7.455-6.028 2.955-3.397 8.033-9.901 11.497-14.554l5.196-25.219c3.295-13.755 4.501-25.235 17.866-29.362a13.92 13.92 0 0 1 3.396 4.042c2.276 4.008 2.327 8.882 1.715 14.893Z" fill="#FFBDA7"/><path d="M514.038 489.617a1.852 1.852 0 0 1-.136-2.446c1.273-2.462 4.042-3.515 6.487-4.347a22.887 22.887 0 0 1 5.095-1.698 15.28 15.28 0 0 0 4.636-2.361 13.385 13.385 0 0 1-4.551 2.683 37.39 37.39 0 0 0-9.68 3.872c-1.121.9-3.074 2.785-1.783 4.229l-.068.068Zm9.747-15.149c-2.105-2.411 1.97-2.717 3.499-3.226 4.041-1.036 7.608-3.261 11.582-4.381a14.785 14.785 0 0 0 5.723-2.157c2.768-2.191 5.74-6.589 8.032-9.357l7.642-9.731c1.698-8.491 4.398-21.72 6.419-30.347 2.157-10.19 5.469-21.075 16.813-24.132-11.175 3.176-14.435 13.993-16.507 24.2-2.038 8.762-4.483 21.584-6.402 30.568l-7.71 9.713c-2.361 2.785-5.265 7.099-8.135 9.357a14.958 14.958 0 0 1-5.79 2.157c-3.974 1.104-7.592 3.278-11.633 4.246-1.546.492-5.587.713-3.533 3.141v-.051Z" fill="#fff"/><path opacity=".3" d="M621.891 501.606c0 .66.182 1.306.527 1.868.356-.441.662-.985.968-1.324a5.83 5.83 0 0 1 2.428-1.41 30.796 30.796 0 0 0 2.87-1.868c.917-.543 2.14-.221 3.21-.747 1.07-.527 1.104-1.461 1.817-2.072.713-.611 1.698-.645 2.377-1.274a8.357 8.357 0 0 0 2.531-3.634 66.949 66.949 0 0 0 2.887-8.932c.543-2.972 1.036-5.808 1.783-8.712 1.596-6.284 5.4-17.747 6.232-24.2.798-6.181.221-8.219-1.698-13.755-1.919-5.537-9.001-32.266-13.161-39.518-3.94-6.793-7.218-7.71-14.961-9.238l-.459-.119-.781-.17-.611-.136-.782-.153-.458-.084-1.121-.221-.849-.153h-.578l-.9-6.266h.221c1.376-1.699 2.887-3.312 4.467-5.214.192.223.358.468.492.73.713 1.359.221 3.006.492 4.518.595 3.26 4.433 4.805 7.744 4.89a9.664 9.664 0 0 0 7.642-2.802 39.214 39.214 0 0 1 2.48-3.396c1.97-1.851 5.094-1.698 7.285-3.397a6.997 6.997 0 0 0 2.327-5.74 18.045 18.045 0 0 0-1.699-6.181c-1.409-3.396-.288-5.587.425-9.018a8.355 8.355 0 0 0-4.942-9.17c-2.411-.951-5.332-.781-7.268-2.513a41.113 41.113 0 0 1-2.565-3.397c-2.717-2.972-7.387-3.226-11.293-2.139a5.44 5.44 0 0 0-3.294-.968c-5.299-4.11-12.21-5.095-18.137-4.62a17.831 17.831 0 0 0-5.927 4.059c-5.332 5.282-8.491 13.042-7.098 20.379.271 1.375.696 2.7.917 4.075.56 3.516-.221 7.099-.204 10.665.017 3.566 1.138 7.506 4.228 9.256 2.344 1.307 5.214 1.052 7.88 1.392 4.381.56 3.872 3.261 4.042 6.98a4.113 4.113 0 0 1-.136 1.698 1.677 1.677 0 0 1-.306.543c-1.137 1.41-4.364 1.97-5.791 2.446a49.706 49.706 0 0 0-8.253 2.785 8.696 8.696 0 0 0-3.091 2.632c-3.243 4.551-4.619 9.969-5.994 15.284a559.215 559.215 0 0 1-4.025 14.741 526.162 526.162 0 0 1-3.974 13.246 45.88 45.88 0 0 1-4.789 11.395c-2.632 4.024-6.402 7.149-9.799 10.58-7.693 7.777-14.129 17.729-24.42 21.465-3.957 1.426-8.202 1.817-12.261 2.904-1.41.373-3.006 1.121-3.397 2.428.204-.019.404-.064.595-.136l.424-.135c.34-.119.663-.238.934-.306a5.823 5.823 0 0 1 2.803.289c1.127.123 2.261.18 3.396.169 1.07.102 1.868 1.087 3.04 1.274 1.171.187 1.698-.543 2.683-.611.985-.068 1.698.458 2.683.373a8.497 8.497 0 0 0 4.178-1.443 68.08 68.08 0 0 0 7.591-5.553c2.173-2.089 4.245-4.076 6.538-5.995 4.976-4.161 14.791-11.208 19.258-15.946l1.137-1.189c3.567-3.719 5.723-5.808 7.252-10.919.747-2.48 2.768-8.865 4.857-15.947l.526-1.698a5.1 5.1 0 0 1 1.155 3.397c.628 8.253 2.598 16.608 3.94 24.827.951 5.859 1.919 11.718 2.36 17.628.34 4.279.391 8.491.459 12.838l.407 30.568c0 1.698 0 3.397.085 5.197.022 4.81.351 9.615.985 14.384a73.937 73.937 0 0 0 2.734 12.397c.306.985.629 1.97.985 2.955 3.516 9.764 9.035 18.68 14.35 27.477a277.047 277.047 0 0 1 14.486 29.073 22.255 22.255 0 0 1 1.902 5.502c.543 3.295-.357 6.64-.611 9.969-.255 3.328.119 6.521 0 9.781a15.82 15.82 0 0 1-2.717 9.222 10.192 10.192 0 0 1-5.248 3.549 17.53 17.53 0 0 0 4.942.153 5.94 5.94 0 0 0 2.666-.917 128.008 128.008 0 0 0 12.295-5.978c1.596-1.273 2.463-3.091 2.072-6.793a15.838 15.838 0 0 1 2.021-10.189 24.17 24.17 0 0 0 2.479-5.961c.425-1.443-1.07-2.938-1.698-3.226-.425-1.699-1.919-2.514-3.396-3.397a19.978 19.978 0 0 1-5.571-4.143 24.45 24.45 0 0 1-2.122-5.401 2.317 2.317 0 0 0-.968-.968c-2.616-7.523-8.305-23.163-9.986-28.479-3.159-10.07-4.568-13.704-10.019-19.308 0 0 3.006-29.346 4.755-50.692l2.105-3.685c.221-.391.442-.765.68-1.138a64.486 64.486 0 0 1 8.219-10.699c.306-.323.611-.696.917-1.053-.458.764-.9 1.529-1.409 2.276-2.021 3.091-4.552 6.402-4.399 10.189Zm10.393-35.017.204-.187a16.964 16.964 0 0 0-.628-3.26c-.391-1.444-.934-3.159-1.529-5.01a31.573 31.573 0 0 0-.594-1.698c-.696-2.072-1.443-4.28-2.123-6.42a51.132 51.132 0 0 1-.611-1.97c-.187-.645-.442-1.426-.628-2.105-.187-.68-.272-.968-.391-1.444 0-.153-.085-.322-.119-.475-.034-.153-.153-.629-.221-.917a22.598 22.598 0 0 1-.339-1.597l-.102-.56a2.835 2.835 0 0 1 0-.391 5.857 5.857 0 0 1-.102-.747v-.509a8.765 8.765 0 0 1 0-.917 7.226 7.226 0 0 1 0-.883 61.877 61.877 0 0 1 1.885-7.795c.543-1.97 1.155-4.076 1.698-6.318a653.841 653.841 0 0 1 4.738 9.035 48.292 48.292 0 0 1 3.397 7.472c1.868 5.876 1.409 12.244.696 18.375a91.481 91.481 0 0 1-4.619 20.514 35.73 35.73 0 0 0-.612-12.193Z" fill="#000"/></svg>