<svg xmlns="http://www.w3.org/2000/svg" xmlns:xlink="http://www.w3.org/1999/xlink" width="5000" zoomAndPan="magnify" viewBox="0 0 3750 3749.999967" height="5000" preserveAspectRatio="xMidYMid meet" version="1.0"><defs><clipPath id="5090275f4a"><path d="M 0 0 L 3750 0 L 3750 2567 L 0 2567 Z M 0 0 " clip-rule="nonzero"/></clipPath><clipPath id="f02851c83b"><path d="M -1105.480469 186.542969 L 3517.15625 -1014.292969 L 4135.480469 1365.953125 L -487.15625 2566.792969 Z M -1105.480469 186.542969 " clip-rule="nonzero"/></clipPath><clipPath id="dba63cf865"><path d="M -1105.480469 186.542969 L 3517.15625 -1014.292969 L 4135.480469 1365.953125 L -487.15625 2566.792969 Z M -1105.480469 186.542969 " clip-rule="nonzero"/></clipPath><clipPath id="f0864bf7bf"><path d="M 0 1362 L 3750 1362 L 3750 3750 L 0 3750 Z M 0 1362 " clip-rule="nonzero"/></clipPath><clipPath id="5a6089e650"><path d="M -343.066406 2503.285156 L 4048.359375 1362.109375 L 4618.660156 3556.710938 L 227.234375 4697.890625 Z M -343.066406 2503.285156 " clip-rule="nonzero"/></clipPath><clipPath id="905c52bd44"><path d="M -343.066406 2503.285156 L 4048.359375 1362.109375 L 4618.660156 3556.710938 L 227.234375 4697.890625 Z M -343.066406 2503.285156 " clip-rule="nonzero"/></clipPath></defs><g clip-path="url(#5090275f4a)"><g clip-path="url(#f02851c83b)"><g clip-path="url(#dba63cf865)"><path fill="#263238" d="M -1105.480469 186.542969 L 3517.15625 -1014.292969 L 4135.480469 1365.953125 L -487.15625 2566.792969 Z M -1105.480469 186.542969 " fill-opacity="1" fill-rule="nonzero"/></g></g></g><g clip-path="url(#f0864bf7bf)"><g clip-path="url(#5a6089e650)"><g clip-path="url(#905c52bd44)"><path fill="#37474f" d="M -343.066406 2503.285156 L 4048.359375 1362.109375 L 4618.660156 3556.710938 L 227.234375 4697.890625 Z M -343.066406 2503.285156 " fill-opacity="1" fill-rule="nonzero"/></g></g></g></svg>