<svg xmlns="http://www.w3.org/2000/svg" width="512" height="512" viewBox="0 0 512 512" xml:space="preserve"><path fill="#111827" d="M512 256a256 256 0 0 1-256 256A256 256 0 0 1 0 256a256 256 0 0 1 512 0"/><path fill="#fff" d="m306.61 186-82.95 68.32v-37.38a3.36 3.36 0 0 0-3.36-3.36l-9.38-.21c-13.37-.56-26.46.84-38.85 4.27-24.92 7.35-43.75 21.14-59.71 44.17v-10.57q.105-.525.21-1.26c0-10.5 1.96-21.56 5.53-31.78 12.81-35.7 47.53-59.5 86.52-59.5h15.54a3.36 3.36 0 0 0 3.36-3.36v-37.66z" data-original="#484848"/><path fill="#a78bfa" d="M399.64 250.4v10.64c-.14.35-.21.77-.21 1.19 0 10.5-1.96 21.56-5.53 31.78-12.81 35.7-47.53 59.5-86.52 59.5h-15.54c-1.89 0-3.43 1.54-3.43 3.43v37.38l-82.95-68.25 82.88-68.25v37.38c0 1.82 1.47 3.36 3.36 3.43l9.38.21c13.37.56 26.46-.84 38.85-4.27 24.92-7.42 43.68-21.14 59.71-44.17" data-original="#7b7b7b"/></svg>