<svg xmlns="http://www.w3.org/2000/svg" width="24" height="24" viewBox="0 0 24 24" xml:space="preserve"><path fill="#bfdbfe" d="M21.432 10.374v9.492c0 .537-.452.973-1.01.973H2.51c-.558-.001-1.01-.437-1.01-.973V6.043c0-.537.452-.973 1.01-.973h10.803l7.774.028z" data-original="#def0ff"/><path fill="#3b82f6" d="M20.683 20.849H2.308l-.505-.388 6.243-8.218c.16-.211.421-.211.582-.001l3.497 4.571c.161.21.44.226.623.034l2.658-2.781a.406.406 0 0 1 .63.029l5.079 6.392zM7.195 9.093a1.78 1.78 0 0 1-1.78 1.779 1.78 1.78 0 0 1-1.779-1.779 1.78 1.78 0 0 1 3.559 0" data-original="#70aee8"/><path fill="#dc2626" d="M14.215 4.702c1.894-1.894 4.97-1.894 6.864 0s1.894 4.97 0 6.864a4.856 4.856 0 0 1-6.864 0 4.856 4.856 0 0 1 0-6.864" data-original="#ff5353"/><path fill="#fff" d="M19.181 10.823c-1.275.644-2.7.606-3.764-.458-1.074-1.074-1.106-2.518-.441-3.798zm-3.139-5.341c1.286-.689 2.752-.663 3.836.421 1.082 1.082 1.11 2.544.425 3.829z" data-original="#ffffff"/><path d="M17.647 3.095a5.03 5.03 0 0 0-3.565 1.474 5 5 0 0 0-.288.314H2.51c-.655 0-1.197.518-1.197 1.16v13.823c0 .642.542 1.16 1.197 1.16h17.912c.655 0 1.197-.518 1.197-1.16v-8.628a5.05 5.05 0 0 0-.408-6.669 5.03 5.03 0 0 0-3.565-1.474m0 .373a4.667 4.667 0 1 1 0 9.333 4.667 4.667 0 0 1-.001-9.333m.127 1.366q-.125 0-.25.01a4 4 0 0 0-1.571.473.187.187 0 0 0-.044.298l4.261 4.25a.188.188 0 0 0 .298-.045c.713-1.339.683-2.909-.458-4.05a3.1 3.1 0 0 0-2.236-.937zm.037.366a3 3 0 0 1 .205.009c.622.051 1.217.314 1.73.826.959.959 1.033 2.207.499 3.374l-3.88-3.87c.477-.219.967-.342 1.446-.339m-15.301.058h10.997a5.05 5.05 0 0 0 .576 6.44 5.046 5.046 0 0 0 7.129 0l.033-.034v8.202a.75.75 0 0 1-.094.365l-4.968-6.252a.61.61 0 0 0-.913-.042l-2.658 2.781c-.114.119-.239.112-.339-.019l-3.497-4.571a.56.56 0 0 0-.44-.231.56.56 0 0 0-.44.232L1.765 20.2a.76.76 0 0 1-.077-.334V6.043c0-.431.363-.785.822-.785m12.464 1.121a.19.19 0 0 0-.165.101c-.693 1.333-.657 2.885.475 4.017 1.222 1.222 2.776 1.189 3.982.493a.188.188 0 0 0 .049-.299l-4.206-4.256a.2.2 0 0 0-.135-.056m.061.514 3.821 3.867c-1.152.497-2.365.413-3.306-.528-.95-.95-1.029-2.18-.515-3.339m-9.619.232c-1.084 0-1.967.883-1.967 1.967s.883 1.967 1.967 1.967 1.967-.883 1.967-1.967S6.5 7.125 5.416 7.125m0 .375c.882 0 1.592.711 1.592 1.592s-.711 1.592-1.592 1.592-1.592-.711-1.592-1.592S4.535 7.5 5.416 7.5m2.921 4.771c.043 0 .091.018.142.084l3.497 4.571a.6.6 0 0 0 .908.05l2.658-2.781c.114-.119.246-.113.348.016l5.004 6.298a.84.84 0 0 1-.471.141H2.51a.85.85 0 0 1-.496-.159l6.181-8.135c.051-.066.099-.084.142-.084" data-original="#2e2e2e"/></svg>